<?xml version="1.0" encoding="utf-8"?>
<!-- Generator: Adobe Illustrator 15.0.2, SVG Export Plug-In . SVG Version: 6.00 Build 0)  -->
<!DOCTYPE svg PUBLIC "-//W3C//DTD SVG 1.1//EN" "http://www.w3.org/Graphics/SVG/1.1/DTD/svg11.dtd">
<svg version="1.1" xmlns="http://www.w3.org/2000/svg" xmlns:xlink="http://www.w3.org/1999/xlink" x="0px" y="0px"
	 width="101.25px" height="63px" viewBox="3.375 -17.625 101.25 63" enable-background="new 3.375 -17.625 101.25 63"
	 xml:space="preserve">
<g id="Layer_2" display="none">
	<rect y="-3.375" display="inline" stroke="#FFFFFF" stroke-miterlimit="10" width="206.25" height="59.625"/>
</g>
<g id="Layer_1" display="none">
	<g display="inline">
		<path fill="#333333" d="M8.036,41.466c2.48-0.253,4.072-0.813,4.775-1.683s1.055-2.883,1.055-6.045V9.382
			c0-2.167-0.342-3.577-1.025-4.23c-0.684-0.654-2.237-1.039-4.658-1.156V2.882h11.829L33.791,32.77L47.233,2.882h11.925v1.113
			c-2.227,0.157-3.662,0.561-4.307,1.215c-0.645,0.654-0.967,2.044-0.967,4.172V36.05c0,2.187,0.322,3.587,0.967,4.202
			s2.08,1.02,4.307,1.214v1.113H42.372v-1.113c2.421-0.194,3.93-0.629,4.526-1.303c0.596-0.673,0.894-2.278,0.894-4.815V8.415
			L32.425,42.579h-0.82L16.502,9.821v23.917c0,3.279,0.479,5.416,1.436,6.41c0.625,0.646,2.021,1.084,4.189,1.317v1.113H8.036
			V41.466z"/>
		<path fill="#333333" d="M89.774,3.146c2.246,0.645,3.535,0.967,3.867,0.967c0.859,0,1.469-0.166,1.831-0.498
			c0.361-0.332,0.669-0.81,0.923-1.436h1.318l0.469,12.627h-1.377c-1.23-2.91-2.5-5.078-3.809-6.504
			c-2.363-2.5-5.439-3.75-9.229-3.75c-3.848,0-7.232,1.46-10.151,4.38c-2.92,2.92-4.38,7.73-4.38,14.429
			c0,5.528,1.455,9.844,4.365,12.95c2.91,3.104,6.504,4.657,10.781,4.657c0.722,0,1.572-0.067,2.549-0.204s1.904-0.352,2.783-0.644
			c1.425-0.468,2.314-0.872,2.666-1.213s0.527-0.843,0.527-1.507v-9.559c0-2.317-0.327-3.761-0.981-4.33
			c-0.655-0.569-2.085-0.923-4.292-1.061v-1.113h15.293v1.113c-1.484,0.098-2.471,0.342-2.959,0.732
			c-0.82,0.625-1.23,1.915-1.23,3.867v11.808c0,0.703-1.724,1.641-5.171,2.812c-3.447,1.172-6.763,1.758-9.946,1.758
			c-5.859,0-10.801-1.709-14.824-5.127c-4.434-3.769-6.65-8.827-6.65-15.176c0-5.585,1.768-10.371,5.303-14.355
			c3.886-4.395,9.042-6.592,15.469-6.592C85.243,2.179,87.528,2.501,89.774,3.146z"/>
	</g>
	<g display="inline">
		<path fill="#333333" d="M63.773,3.854c0.854,0.607,1.282,1.272,1.282,1.997c0,0.311-0.108,0.6-0.326,0.868
			c-0.218,0.268-0.552,0.402-1.005,0.402c-0.331,0-0.621-0.113-0.871-0.34c-0.25-0.227-0.432-0.557-0.545-0.991l-0.17-0.68
			c-0.123-0.5-0.335-0.854-0.637-1.062C61.189,3.85,60.779,3.75,60.269,3.75c-1.076,0-1.985,0.47-2.726,1.411
			c-0.741,0.94-1.111,2.19-1.111,3.75c0,1.428,0.408,2.708,1.225,3.842c0.817,1.135,1.919,1.702,3.307,1.702
			c0.982,0,1.855-0.321,2.62-0.965c0.434-0.369,0.925-0.955,1.473-1.759l0.396,0.241c-0.538,1.134-1.104,2.032-1.699,2.693
			c-1.142,1.267-2.464,1.899-3.965,1.899c-1.473,0-2.775-0.581-3.908-1.742c-1.133-1.161-1.699-2.738-1.699-4.729
			c0-1.954,0.618-3.634,1.855-5.041c1.237-1.407,2.799-2.11,4.687-2.11C61.902,2.943,62.919,3.247,63.773,3.854z"/>
	</g>
	<g display="inline">
		<path fill="#333333" d="M101.516,41.984c1.167-0.123,1.927-0.334,2.281-0.629c0.354-0.295,0.531-1.043,0.531-2.246V24.876
			c0-1.167-0.172-1.917-0.516-2.25c-0.345-0.333-1.109-0.542-2.297-0.625v-0.594h8.625c2.905,0,5.363,0.479,7.375,1.438
			c3.625,1.719,5.438,4.792,5.438,9.22c0,1.594-0.326,3.108-0.977,4.547c-0.651,1.438-1.634,2.65-2.945,3.641
			c-0.833,0.625-1.698,1.1-2.594,1.422c-1.637,0.604-3.646,0.906-6.031,0.906h-8.891L101.516,41.984L101.516,41.984z
			 M107.961,41.143c0.255,0.166,0.784,0.25,1.586,0.25c2.5,0,4.557-0.496,6.172-1.485c2.479-1.522,3.719-4.124,3.719-7.804
			c0-3.285-1.021-5.755-3.062-7.413c-1.75-1.418-4.067-2.127-6.953-2.127c-0.719,0-1.206,0.078-1.461,0.234
			c-0.255,0.157-0.383,0.501-0.383,1.032v16.279C107.579,40.631,107.706,40.975,107.961,41.143z"/>
		<path fill="#333333" d="M135.297,29.445c1.104,1.017,1.656,2.457,1.656,4.32h-9.922c0.104,2.411,0.65,4.168,1.641,5.271
			c0.989,1.103,2.161,1.651,3.516,1.651c1.095,0,2.017-0.285,2.767-0.856s1.442-1.382,2.078-2.433l0.547,0.188
			c-0.427,1.325-1.228,2.551-2.397,3.678c-1.173,1.127-2.607,1.69-4.306,1.69c-1.958,0-3.472-0.739-4.539-2.22
			c-1.067-1.479-1.603-3.182-1.603-5.108c0-2.094,0.621-3.901,1.859-5.422c1.239-1.521,2.854-2.281,4.844-2.281
			C132.907,27.923,134.193,28.431,135.297,29.445z M127.812,30.643c-0.332,0.562-0.572,1.271-0.719,2.125h6.594
			c-0.114-1.043-0.312-1.817-0.594-2.328c-0.511-0.918-1.365-1.375-2.562-1.375C129.344,29.062,128.438,29.59,127.812,30.643z"/>
		<path fill="#333333" d="M139.984,37.657h0.517c0.239,1.188,0.562,2.099,0.967,2.733c0.728,1.168,1.792,1.75,3.195,1.75
			c0.778,0,1.396-0.216,1.847-0.647c0.452-0.433,0.678-0.992,0.678-1.681c0-0.438-0.129-0.858-0.391-1.266
			c-0.261-0.406-0.719-0.802-1.375-1.188l-1.749-1c-1.28-0.688-2.224-1.381-2.829-2.078c-0.604-0.698-0.906-1.521-0.906-2.469
			c0-1.168,0.416-2.125,1.25-2.875c0.832-0.75,1.879-1.125,3.141-1.125c0.552,0,1.158,0.104,1.82,0.312
			c0.66,0.208,1.033,0.312,1.117,0.312c0.188,0,0.322-0.026,0.405-0.078c0.083-0.052,0.156-0.135,0.22-0.25h0.375l0.108,4.359
			h-0.483c-0.209-1.01-0.49-1.797-0.845-2.359c-0.646-1.041-1.577-1.562-2.797-1.562c-0.729,0-1.302,0.224-1.719,0.672
			s-0.625,0.974-0.625,1.578c0,0.958,0.719,1.812,2.155,2.562l2.062,1.109c2.219,1.208,3.328,2.615,3.328,4.219
			c0,1.229-0.46,2.234-1.381,3.017c-0.92,0.78-2.124,1.172-3.61,1.172c-0.624,0-1.331-0.104-2.122-0.312
			c-0.791-0.209-1.258-0.312-1.404-0.312c-0.125,0-0.233,0.044-0.328,0.133c-0.094,0.09-0.166,0.195-0.217,0.32h-0.406v-5.046
			H139.984z"/>
		<path fill="#333333" d="M151.391,42.143c1.114-0.104,1.817-0.295,2.109-0.57c0.292-0.276,0.438-1.023,0.438-2.242v-7.453
			c0-0.677-0.047-1.146-0.141-1.406c-0.156-0.427-0.484-0.641-0.984-0.641c-0.114,0-0.227,0.011-0.336,0.031
			c-0.108,0.021-0.425,0.104-0.944,0.25v-0.484l0.672-0.219c1.823-0.594,3.094-1.042,3.812-1.344
			c0.293-0.125,0.479-0.188,0.562-0.188c0.021,0.073,0.031,0.151,0.031,0.234v11.219c0,1.188,0.143,1.933,0.43,2.233
			c0.286,0.303,0.936,0.496,1.945,0.578v0.438h-7.594V42.143L151.391,42.143z M153.875,21.249c0.312-0.321,0.698-0.482,1.156-0.482
			c0.447,0,0.83,0.158,1.148,0.475c0.316,0.316,0.477,0.702,0.477,1.158c0,0.446-0.159,0.827-0.477,1.143
			c-0.318,0.316-0.701,0.474-1.148,0.474c-0.458,0-0.844-0.158-1.156-0.474s-0.469-0.697-0.469-1.143
			C153.406,21.954,153.562,21.57,153.875,21.249z"/>
		<path fill="#333333" d="M162.618,35.657c-0.526-0.802-0.789-1.703-0.789-2.703c0-1.22,0.483-2.375,1.453-3.47
			c0.969-1.093,2.338-1.641,4.108-1.641c0.76,0,1.6,0.18,2.517,0.539c0.917,0.359,1.797,0.539,2.641,0.539
			c0.22,0,0.55-0.008,0.992-0.023s0.763-0.022,0.961-0.022h0.188v1.267h-2.703c0.188,0.438,0.332,0.817,0.438,1.141
			c0.178,0.604,0.266,1.177,0.266,1.719c0,1.188-0.491,2.279-1.477,3.273c-0.984,0.994-2.311,1.492-3.977,1.492
			c-0.262,0-0.729-0.048-1.406-0.142c-0.303,0-0.703,0.255-1.203,0.767c-0.5,0.51-0.75,0.926-0.75,1.25
			c0,0.332,0.365,0.577,1.096,0.733c0.479,0.104,1.012,0.156,1.596,0.156c2.682,0,4.502,0.151,5.461,0.452
			c1.576,0.49,2.363,1.543,2.363,3.156c0,1.646-0.918,2.959-2.758,3.938c-1.839,0.979-3.695,1.469-5.57,1.469
			c-1.707,0-3.062-0.347-4.062-1.039s-1.5-1.419-1.5-2.18c0-0.375,0.132-0.742,0.396-1.103c0.265-0.359,0.787-0.894,1.564-1.602
			l1.027-0.922l0.187-0.188c-0.476-0.188-0.832-0.371-1.069-0.548c-0.414-0.323-0.621-0.692-0.621-1.108
			c0-0.385,0.181-0.811,0.539-1.273c0.359-0.463,1.127-1.216,2.306-2.258C163.88,37.018,163.145,36.459,162.618,35.657z
			 M164.273,47.282c0.984,0.333,2.113,0.5,3.384,0.5c1.729,0,3.135-0.3,4.219-0.898c1.083-0.599,1.625-1.336,1.625-2.211
			c0-0.698-0.438-1.162-1.315-1.391c-0.543-0.136-1.57-0.214-3.084-0.234c-0.386-0.011-0.793-0.022-1.222-0.039
			c-0.428-0.016-0.819-0.034-1.174-0.055c-0.229-0.011-0.601-0.052-1.11-0.125c-0.513-0.073-0.894-0.136-1.144-0.188
			c-0.125,0-0.431,0.328-0.913,0.984c-0.494,0.667-0.741,1.281-0.741,1.844C162.797,46.345,163.29,46.949,164.273,47.282z
			 M169.234,36.548c0.625-0.5,0.938-1.37,0.938-2.608c0-0.989-0.253-2.104-0.758-3.345c-0.505-1.239-1.347-1.858-2.522-1.858
			c-1.021,0-1.725,0.483-2.109,1.453c-0.198,0.511-0.297,1.141-0.297,1.891c0,1.271,0.307,2.412,0.922,3.422
			c0.613,1.012,1.41,1.516,2.391,1.516C168.37,37.018,168.85,36.859,169.234,36.548z"/>
		<path fill="#333333" d="M176.234,42.143c0.74-0.095,1.259-0.278,1.556-0.556c0.297-0.276,0.444-0.894,0.444-1.853v-7.938
			c0-0.661-0.062-1.126-0.188-1.395c-0.197-0.394-0.604-0.59-1.219-0.59c-0.094,0-0.189,0.006-0.289,0.017s-0.223,0.026-0.367,0.047
			v-0.547c0.428-0.125,1.438-0.448,3.031-0.969l1.469-0.484c0.073,0,0.117,0.026,0.133,0.078c0.016,0.052,0.023,0.125,0.023,0.219
			v2.297c0.957-0.896,1.705-1.51,2.246-1.844c0.811-0.51,1.652-0.766,2.525-0.766c0.707,0,1.353,0.203,1.935,0.609
			c1.123,0.792,1.685,2.203,1.685,4.234V40c0,0.75,0.149,1.292,0.449,1.625s0.801,0.505,1.504,0.516v0.438H184.5v-0.438
			c0.76-0.104,1.292-0.314,1.594-0.633c0.303-0.316,0.453-1.008,0.453-2.07v-6.672c0-0.896-0.166-1.638-0.497-2.227
			c-0.332-0.588-0.942-0.883-1.833-0.883c-0.611,0-1.232,0.208-1.865,0.625c-0.352,0.24-0.808,0.636-1.367,1.188v8.75
			c0,0.75,0.168,1.254,0.5,1.508c0.334,0.256,0.859,0.395,1.578,0.414v0.438h-6.828V42.143z"/>
		<path fill="#333333" d="M193.329,37.657h0.517c0.238,1.188,0.562,2.099,0.967,2.733c0.727,1.168,1.791,1.75,3.194,1.75
			c0.779,0,1.396-0.216,1.847-0.647c0.453-0.433,0.679-0.992,0.679-1.681c0-0.438-0.13-0.858-0.392-1.266
			c-0.261-0.406-0.719-0.802-1.375-1.188l-1.748-1c-1.281-0.688-2.225-1.381-2.83-2.078c-0.604-0.698-0.906-1.521-0.906-2.469
			c0-1.168,0.417-2.125,1.25-2.875c0.832-0.75,1.88-1.125,3.141-1.125c0.553,0,1.159,0.104,1.82,0.312
			c0.66,0.208,1.033,0.312,1.117,0.312c0.188,0,0.322-0.026,0.406-0.078c0.082-0.052,0.155-0.135,0.219-0.25h0.375l0.108,4.359
			h-0.483c-0.209-1.01-0.49-1.797-0.844-2.359c-0.646-1.041-1.578-1.562-2.797-1.562c-0.729,0-1.303,0.224-1.72,0.672
			s-0.625,0.974-0.625,1.578c0,0.958,0.72,1.812,2.156,2.562l2.062,1.109c2.219,1.208,3.328,2.615,3.328,4.219
			c0,1.229-0.46,2.234-1.381,3.017c-0.92,0.78-2.124,1.172-3.609,1.172c-0.625,0-1.332-0.104-2.123-0.312
			c-0.791-0.209-1.258-0.312-1.404-0.312c-0.125,0-0.233,0.044-0.327,0.133c-0.095,0.09-0.167,0.195-0.218,0.32h-0.406v-5.046
			H193.329z"/>
	</g>
</g>
<g id="Layer_3">
	<g>
		<path fill="#545554" d="M7.491,40.463c2.48-0.359,4.072-1.156,4.775-2.392c0.703-1.234,1.055-4.097,1.055-8.591V-5.135
			c0-3.08-0.342-5.083-1.025-6.011c-0.684-0.93-2.237-1.477-4.658-1.643v-1.583h11.829l13.779,42.477l13.442-42.477h11.925v1.583
			c-2.227,0.223-3.662,0.797-4.307,1.727c-0.645,0.93-0.967,2.905-0.967,5.929v37.901c0,3.107,0.322,5.098,0.967,5.973
			c0.645,0.874,2.08,1.448,4.307,1.725v1.582H41.827v-1.582c2.421-0.276,3.93-0.894,4.526-1.852
			c0.596-0.956,0.894-3.237,0.894-6.844V-6.509L31.88,42.045h-0.82L15.957-4.511V29.48c0,4.661,0.479,7.697,1.436,9.11
			c0.625,0.917,2.021,1.541,4.189,1.872v1.582H7.491V40.463z"/>
		<path fill="#545554" d="M89.229-13.998c2.246,0.917,3.535,1.374,3.867,1.374c0.859,0,1.469-0.235,1.832-0.707
			c0.36-0.472,0.668-1.151,0.922-2.041h1.318l0.469,17.946H96.26c-1.229-4.136-2.5-7.217-3.809-9.244
			C90.088-10.223,87.012-12,83.223-12c-3.849,0-7.232,2.076-10.151,6.225c-2.92,4.15-4.38,10.986-4.38,20.506
			c0,7.856,1.455,13.991,4.365,18.405c2.91,4.412,6.504,6.618,10.781,6.618c0.722,0,1.572-0.096,2.55-0.29
			c0.977-0.194,1.903-0.499,2.782-0.914c1.425-0.665,2.313-1.239,2.666-1.724s0.527-1.198,0.527-2.142V21.101
			c0-3.293-0.327-5.345-0.981-6.153c-0.654-0.809-2.085-1.312-4.292-1.508v-1.583h15.293v1.583c-1.483,0.139-2.471,0.485-2.959,1.04
			c-0.819,0.888-1.229,2.722-1.229,5.496v16.781c0,0.999-1.725,2.332-5.172,3.996c-3.446,1.665-6.762,2.498-9.945,2.498
			c-5.859,0-10.801-2.429-14.824-7.286c-4.434-5.356-6.65-12.545-6.65-21.568c0-7.938,1.768-14.739,5.303-20.401
			c3.886-6.246,9.042-9.369,15.469-9.369C84.698-15.372,86.982-14.914,89.229-13.998z"/>
	</g>
	<g>
		<path fill="#545554" d="M63.228-12.991c0.854,0.862,1.282,1.808,1.282,2.838c0,0.442-0.108,0.853-0.326,1.233
			c-0.218,0.381-0.552,0.572-1.005,0.572c-0.331,0-0.621-0.161-0.871-0.483c-0.25-0.323-0.432-0.792-0.545-1.409l-0.17-0.967
			c-0.123-0.71-0.335-1.213-0.637-1.509c-0.312-0.281-0.722-0.423-1.232-0.423c-1.076,0-1.985,0.667-2.726,2.005
			c-0.741,1.336-1.111,3.113-1.111,5.33c0,2.029,0.408,3.849,1.225,5.46c0.817,1.613,1.919,2.419,3.307,2.419
			c0.982,0,1.855-0.457,2.62-1.371c0.434-0.525,0.925-1.357,1.473-2.5l0.396,0.343c-0.538,1.611-1.104,2.888-1.699,3.827
			c-1.142,1.801-2.464,2.699-3.965,2.699c-1.473,0-2.775-0.826-3.908-2.475c-1.133-1.65-1.699-3.892-1.699-6.722
			c0-2.777,0.618-5.165,1.855-7.165c1.237-1.999,2.799-2.999,4.687-2.999C61.357-14.286,62.374-13.854,63.228-12.991z"/>
	</g>
</g>
</svg>
