<?xml version="1.0" encoding="utf-8"?>
<!-- Generator: Adobe Illustrator 15.0.2, SVG Export Plug-In . SVG Version: 6.00 Build 0)  -->
<!DOCTYPE svg PUBLIC "-//W3C//DTD SVG 1.1//EN" "http://www.w3.org/Graphics/SVG/1.1/DTD/svg11.dtd">
<svg version="1.1" id="Layer_1" xmlns="http://www.w3.org/2000/svg" xmlns:xlink="http://www.w3.org/1999/xlink" x="0px" y="0px"
	 width="792px" height="612px" viewBox="0 0 792 612" enable-background="new 0 0 792 612" xml:space="preserve">
<g id="XMLID_3_">
	<g>
		<path fill="#797979" d="M661.5,606c-196.09,0-554.5,0-554.5,0c-3.67,0-11-8-11-12c0-188.08,0-376.17,0-564.25
			C99.5,10.75,114,6,114,6c270.94,0,513.56,0,556.33,0c0,0,20.11,3.64,25.67,30.92V570C693.08,581.21,687.5,596,661.5,606z
			 M653.92,382.99c10.82-15.66,9.561-50.25,9.561-83.06c0-24.39-1.021-48.94-3.58-61.55c-6.07-29.96-50.98-29.75-69.32-10.76
			c0-16.33,0-32.66,0-49c-17.93,0-35.86,0-53.78,0c0,71.71,0,143.42,0,215.13c16.33,0,32.66,0,49,0c3.61-1.97,1.91-9.25,4.78-11.95
			C604.19,397.88,637.54,406.73,653.92,382.99z M527.24,294.55c0-30.41,1.859-70.67-7.17-90.83c-16.58-36.99-77.16-21.15-124.3-25.1
			c-1.4,0.21-1.3,1.89-1.2,3.59c0,70.51,0,141.03,0,211.54c23.291,0,46.42,0,65.74,0c19.301,0,42.931,1.29,54.971-11.95
			C528.11,367.7,527.24,323.77,527.24,294.55z M379.04,393.75c0-71.71,0-143.42,0-215.13c-24.3,0-48.61,0-72.91,0
			c-6.12,30.93-6.61,67.49-14.34,96.81c-3.27-33.38-8.66-64.63-13.14-96.81c-23.91,0-47.81,0-71.71,0
			c-2.79,69.32-0.4,143.82-1.2,215.13c16.34,0,32.66,0,49,0c0.8-45.02-1.59-93.22,1.2-136.25c5.88,45.91,13.28,90.3,19.12,136.25
			c11.95,0,23.9,0,35.85,0c5.68-47.3,11.43-94.55,19.13-139.83c0,46.61,0,93.22,0,139.83C346.37,393.75,362.7,393.75,379.04,393.75z
			 M190.2,393.75c0-71.71,0-143.42,0-215.13c-18.32,0-36.65,0-54.97,0c-2.79,69.32-0.4,143.82-1.2,215.13
			C152.76,393.75,171.48,393.75,190.2,393.75z"/>
		<path fill="#797979" d="M595.36,245.55c16.359-2.39,13.739,38.02,13.739,60.31c0,18.68,1.351,59.72-10.149,60.4
			c-13.04,0.78-9.19-45.38-9.19-60.4c0-26.2-0.1-39.56,2.01-56.72C592.44,247.42,593.64,246.22,595.36,245.55z"/>
		<path fill="#797979" d="M472.26,294.55c0,23.63,3.57,62.19-21.51,62.15c0.8-46.61-1.59-96.41,1.19-141.03
			c6.159-0.58,10.02,1.14,13.149,3.59C470.72,237.11,472.26,267.04,472.26,294.55z"/>
	</g>
	<g>
	</g>
</g>
</svg>
