<?xml version="1.0" encoding="utf-8"?>
<!-- Generator: Adobe Illustrator 15.0.2, SVG Export Plug-In . SVG Version: 6.00 Build 0)  -->
<!DOCTYPE svg PUBLIC "-//W3C//DTD SVG 1.1//EN" "http://www.w3.org/Graphics/SVG/1.1/DTD/svg11.dtd">
<svg version="1.1" id="Layer_1" xmlns="http://www.w3.org/2000/svg" xmlns:xlink="http://www.w3.org/1999/xlink" x="0px" y="0px"
	 width="206.25px" height="56.25px" viewBox="0 0 206.25 56.25" enable-background="new 0 0 206.25 56.25" xml:space="preserve">
<g id="Layer_2" display="none">
	<rect y="-3.375" display="inline" stroke="#FFFFFF" stroke-miterlimit="10" width="206.25" height="59.625"/>
</g>
<g id="Layer_1_1_">
	<g>
		<path fill="#333333" d="M8.036,41.956c2.48-0.253,4.072-0.813,4.775-1.683c0.703-0.87,1.055-2.883,1.055-6.045V9.872
			c0-2.167-0.342-3.576-1.025-4.229c-0.684-0.654-2.237-1.039-4.658-1.156V3.372h11.829L33.791,33.26L47.233,3.372h11.925v1.113
			c-2.227,0.157-3.662,0.562-4.307,1.215c-0.645,0.654-0.967,2.044-0.967,4.172V36.54c0,2.187,0.322,3.587,0.967,4.202
			s2.08,1.02,4.307,1.214v1.113H42.372v-1.113c2.421-0.194,3.93-0.629,4.526-1.303c0.596-0.673,0.894-2.278,0.894-4.815V8.905
			L32.425,43.069h-0.82L16.502,10.311v23.917c0,3.279,0.479,5.416,1.436,6.41c0.625,0.646,2.021,1.084,4.189,1.316v1.113H8.036
			V41.956z"/>
		<path fill="#333333" d="M89.774,3.636c2.246,0.645,3.535,0.967,3.867,0.967c0.859,0,1.469-0.166,1.831-0.498
			c0.361-0.332,0.669-0.81,0.923-1.436h1.318l0.469,12.627h-1.377c-1.23-2.91-2.5-5.078-3.809-6.505
			c-2.363-2.5-5.439-3.75-9.229-3.75c-3.848,0-7.232,1.461-10.151,4.381c-2.92,2.92-4.38,7.729-4.38,14.429
			c0,5.528,1.455,9.844,4.365,12.95c2.91,3.104,6.504,4.657,10.781,4.657c0.722,0,1.572-0.067,2.549-0.204s1.904-0.352,2.783-0.644
			c1.425-0.468,2.314-0.872,2.666-1.213s0.527-0.843,0.527-1.507v-9.56c0-2.316-0.327-3.761-0.981-4.33
			c-0.655-0.568-2.085-0.923-4.292-1.061v-1.113h15.293v1.113c-1.484,0.098-2.471,0.342-2.959,0.732
			c-0.82,0.625-1.23,1.915-1.23,3.866v11.809c0,0.703-1.724,1.641-5.171,2.812c-3.447,1.172-6.763,1.758-9.946,1.758
			c-5.859,0-10.801-1.709-14.824-5.127c-4.434-3.769-6.65-8.827-6.65-15.176c0-5.585,1.768-10.371,5.303-14.354
			c3.886-4.396,9.042-6.593,15.469-6.593C85.243,2.669,87.528,2.991,89.774,3.636z"/>
	</g>
	<g>
		<path fill="#333333" d="M63.773,4.344c0.854,0.606,1.282,1.271,1.282,1.997c0,0.311-0.108,0.6-0.326,0.867
			c-0.218,0.269-0.552,0.402-1.005,0.402c-0.331,0-0.621-0.113-0.871-0.34s-0.432-0.557-0.545-0.991l-0.17-0.68
			c-0.123-0.5-0.335-0.854-0.637-1.062C61.189,4.34,60.779,4.24,60.269,4.24c-1.076,0-1.985,0.47-2.726,1.411
			c-0.741,0.94-1.111,2.19-1.111,3.75c0,1.428,0.408,2.708,1.225,3.842c0.817,1.136,1.919,1.702,3.307,1.702
			c0.982,0,1.855-0.321,2.62-0.965c0.434-0.369,0.925-0.955,1.473-1.759l0.396,0.241c-0.538,1.134-1.104,2.031-1.699,2.692
			c-1.142,1.268-2.464,1.899-3.965,1.899c-1.473,0-2.775-0.581-3.908-1.742c-1.133-1.161-1.699-2.738-1.699-4.729
			c0-1.953,0.618-3.634,1.855-5.041c1.237-1.406,2.799-2.109,4.687-2.109C61.902,3.433,62.919,3.737,63.773,4.344z"/>
	</g>
	<g>
		<path fill="#333333" d="M101.516,42.475c1.167-0.123,1.927-0.334,2.281-0.629s0.531-1.043,0.531-2.246V25.366
			c0-1.167-0.172-1.917-0.516-2.25c-0.346-0.333-1.109-0.542-2.297-0.625v-0.594h8.625c2.904,0,5.362,0.479,7.375,1.438
			c3.625,1.72,5.438,4.792,5.438,9.22c0,1.595-0.326,3.108-0.977,4.547c-0.651,1.438-1.635,2.65-2.945,3.642
			c-0.833,0.625-1.698,1.101-2.594,1.422c-1.638,0.604-3.646,0.906-6.031,0.906h-8.891L101.516,42.475L101.516,42.475z
			 M107.961,41.633c0.255,0.166,0.784,0.25,1.586,0.25c2.5,0,4.557-0.496,6.172-1.484c2.479-1.522,3.719-4.124,3.719-7.805
			c0-3.285-1.021-5.754-3.062-7.413c-1.75-1.418-4.067-2.127-6.953-2.127c-0.719,0-1.206,0.078-1.461,0.233
			c-0.255,0.157-0.383,0.501-0.383,1.032V40.6C107.579,41.121,107.706,41.465,107.961,41.633z"/>
		<path fill="#333333" d="M135.297,29.936c1.104,1.017,1.656,2.457,1.656,4.32h-9.922c0.104,2.41,0.65,4.168,1.641,5.271
			c0.989,1.103,2.161,1.651,3.516,1.651c1.096,0,2.018-0.285,2.768-0.856s1.441-1.382,2.078-2.433l0.547,0.188
			c-0.428,1.325-1.229,2.551-2.396,3.678c-1.174,1.127-2.607,1.69-4.307,1.69c-1.958,0-3.473-0.739-4.539-2.22
			c-1.066-1.479-1.604-3.183-1.604-5.108c0-2.094,0.621-3.901,1.859-5.422c1.239-1.521,2.854-2.281,4.844-2.281
			C132.907,28.414,134.193,28.922,135.297,29.936z M127.812,31.133c-0.332,0.562-0.572,1.271-0.72,2.125h6.595
			c-0.114-1.043-0.312-1.816-0.595-2.328c-0.511-0.918-1.364-1.375-2.562-1.375C129.344,29.553,128.438,30.08,127.812,31.133z"/>
		<path fill="#333333" d="M139.984,38.147h0.517c0.239,1.188,0.562,2.099,0.967,2.733c0.728,1.168,1.792,1.75,3.195,1.75
			c0.778,0,1.396-0.217,1.847-0.647c0.452-0.433,0.678-0.992,0.678-1.681c0-0.438-0.129-0.858-0.391-1.267
			c-0.261-0.405-0.719-0.802-1.375-1.188l-1.749-1c-1.28-0.688-2.224-1.381-2.829-2.077c-0.604-0.698-0.906-1.521-0.906-2.47
			c0-1.168,0.416-2.125,1.25-2.875c0.832-0.75,1.879-1.125,3.142-1.125c0.552,0,1.157,0.105,1.819,0.313
			c0.66,0.208,1.033,0.312,1.117,0.312c0.188,0,0.322-0.026,0.405-0.078c0.083-0.053,0.156-0.135,0.22-0.25h0.375l0.108,4.358
			h-0.483c-0.209-1.01-0.49-1.797-0.845-2.358c-0.646-1.041-1.577-1.562-2.797-1.562c-0.729,0-1.302,0.225-1.72,0.672
			c-0.416,0.448-0.625,0.975-0.625,1.578c0,0.958,0.72,1.812,2.156,2.562l2.062,1.108c2.219,1.208,3.328,2.615,3.328,4.22
			c0,1.229-0.46,2.233-1.382,3.017c-0.92,0.78-2.123,1.172-3.609,1.172c-0.624,0-1.331-0.104-2.122-0.312
			c-0.791-0.209-1.258-0.312-1.403-0.312c-0.125,0-0.233,0.044-0.328,0.133c-0.094,0.09-0.166,0.195-0.217,0.32h-0.406v-5.046
			H139.984z"/>
		<path fill="#333333" d="M151.391,42.633c1.114-0.104,1.817-0.295,2.109-0.569c0.292-0.276,0.438-1.023,0.438-2.242v-7.453
			c0-0.677-0.047-1.146-0.141-1.405c-0.156-0.428-0.484-0.642-0.984-0.642c-0.113,0-0.227,0.011-0.336,0.03
			c-0.107,0.021-0.425,0.104-0.943,0.25v-0.483l0.672-0.219c1.822-0.595,3.094-1.042,3.812-1.344
			c0.293-0.125,0.479-0.188,0.562-0.188c0.021,0.073,0.03,0.15,0.03,0.234V39.82c0,1.188,0.144,1.934,0.431,2.232
			c0.286,0.304,0.937,0.496,1.944,0.578v0.438h-7.594V42.633L151.391,42.633z M153.875,21.739c0.312-0.321,0.698-0.481,1.156-0.481
			c0.447,0,0.83,0.157,1.148,0.475c0.315,0.316,0.477,0.702,0.477,1.158c0,0.446-0.159,0.827-0.477,1.143
			c-0.318,0.316-0.701,0.475-1.148,0.475c-0.458,0-0.844-0.158-1.156-0.475c-0.312-0.315-0.469-0.696-0.469-1.143
			S153.562,22.06,153.875,21.739z"/>
		<path fill="#333333" d="M162.618,36.147c-0.526-0.802-0.789-1.703-0.789-2.703c0-1.22,0.483-2.375,1.453-3.47
			c0.969-1.094,2.338-1.642,4.108-1.642c0.76,0,1.6,0.182,2.517,0.54c0.917,0.359,1.797,0.539,2.641,0.539
			c0.22,0,0.55-0.008,0.992-0.022c0.442-0.016,0.763-0.022,0.961-0.022h0.188v1.267h-2.703c0.188,0.438,0.332,0.817,0.438,1.142
			c0.178,0.604,0.266,1.177,0.266,1.719c0,1.188-0.49,2.279-1.477,3.272c-0.984,0.994-2.311,1.492-3.977,1.492
			c-0.262,0-0.729-0.048-1.406-0.142c-0.303,0-0.703,0.255-1.203,0.767c-0.5,0.51-0.75,0.926-0.75,1.25
			c0,0.332,0.365,0.577,1.096,0.733c0.479,0.104,1.012,0.156,1.596,0.156c2.683,0,4.502,0.151,5.461,0.452
			c1.576,0.49,2.363,1.543,2.363,3.156c0,1.646-0.918,2.959-2.758,3.938c-1.839,0.979-3.695,1.469-5.57,1.469
			c-1.707,0-3.062-0.347-4.062-1.039c-1-0.691-1.5-1.419-1.5-2.18c0-0.375,0.132-0.742,0.396-1.104
			c0.266-0.358,0.787-0.894,1.564-1.602l1.027-0.922l0.187-0.188c-0.476-0.188-0.832-0.371-1.069-0.549
			c-0.414-0.322-0.621-0.691-0.621-1.107c0-0.385,0.182-0.812,0.539-1.273c0.359-0.463,1.127-1.216,2.307-2.258
			C163.88,37.508,163.145,36.949,162.618,36.147z M164.273,47.772c0.983,0.333,2.113,0.5,3.384,0.5c1.729,0,3.135-0.3,4.219-0.898
			c1.083-0.599,1.625-1.336,1.625-2.211c0-0.698-0.438-1.162-1.315-1.391c-0.543-0.136-1.569-0.214-3.084-0.234
			c-0.386-0.011-0.793-0.022-1.222-0.039c-0.428-0.016-0.819-0.034-1.174-0.055c-0.229-0.011-0.601-0.052-1.11-0.125
			c-0.513-0.073-0.894-0.136-1.144-0.188c-0.125,0-0.431,0.328-0.913,0.984c-0.494,0.667-0.741,1.281-0.741,1.844
			C162.797,46.835,163.29,47.439,164.273,47.772z M169.234,37.038c0.625-0.5,0.938-1.37,0.938-2.608
			c0-0.988-0.253-2.104-0.758-3.345c-0.505-1.239-1.348-1.858-2.521-1.858c-1.021,0-1.726,0.483-2.109,1.453
			c-0.198,0.512-0.297,1.142-0.297,1.892c0,1.271,0.307,2.412,0.922,3.422c0.613,1.013,1.41,1.517,2.391,1.517
			C168.37,37.508,168.85,37.35,169.234,37.038z"/>
		<path fill="#333333" d="M176.234,42.633c0.74-0.095,1.259-0.277,1.556-0.556c0.297-0.276,0.444-0.894,0.444-1.853v-7.938
			c0-0.661-0.062-1.126-0.188-1.396c-0.196-0.394-0.604-0.59-1.219-0.59c-0.095,0-0.188,0.006-0.289,0.018
			c-0.101,0.011-0.224,0.025-0.367,0.047v-0.547c0.429-0.125,1.438-0.448,3.031-0.969l1.469-0.484c0.073,0,0.117,0.025,0.134,0.078
			c0.016,0.052,0.022,0.125,0.022,0.218v2.297c0.957-0.896,1.705-1.51,2.245-1.844c0.812-0.509,1.652-0.765,2.525-0.765
			c0.707,0,1.354,0.203,1.936,0.608c1.123,0.792,1.685,2.203,1.685,4.234v7.298c0,0.75,0.149,1.292,0.449,1.625
			s0.801,0.505,1.504,0.516v0.438H184.5v-0.438c0.76-0.104,1.292-0.313,1.594-0.633c0.303-0.316,0.453-1.008,0.453-2.07v-6.672
			c0-0.896-0.166-1.638-0.497-2.227c-0.332-0.588-0.942-0.883-1.833-0.883c-0.611,0-1.232,0.208-1.865,0.625
			c-0.352,0.24-0.808,0.636-1.367,1.188v8.75c0,0.75,0.168,1.254,0.5,1.508c0.334,0.256,0.859,0.396,1.578,0.414v0.438h-6.828
			V42.633L176.234,42.633z"/>
		<path fill="#333333" d="M193.329,38.147h0.517c0.238,1.188,0.562,2.099,0.967,2.733c0.728,1.168,1.791,1.75,3.194,1.75
			c0.779,0,1.396-0.217,1.847-0.647c0.453-0.433,0.68-0.992,0.68-1.681c0-0.438-0.131-0.858-0.393-1.267
			c-0.261-0.405-0.719-0.802-1.375-1.188l-1.748-1c-1.281-0.688-2.225-1.381-2.83-2.077c-0.604-0.698-0.905-1.521-0.905-2.47
			c0-1.168,0.417-2.125,1.25-2.875c0.831-0.75,1.88-1.125,3.141-1.125c0.554,0,1.159,0.105,1.82,0.313
			c0.659,0.208,1.032,0.312,1.116,0.312c0.188,0,0.322-0.026,0.406-0.078c0.082-0.053,0.155-0.135,0.219-0.25h0.375l0.108,4.358
			h-0.483c-0.209-1.01-0.489-1.797-0.844-2.358c-0.646-1.041-1.578-1.562-2.797-1.562c-0.729,0-1.303,0.225-1.72,0.672
			c-0.417,0.448-0.625,0.975-0.625,1.578c0,0.958,0.72,1.812,2.155,2.562l2.062,1.108c2.219,1.208,3.328,2.615,3.328,4.22
			c0,1.229-0.46,2.233-1.381,3.017c-0.92,0.78-2.124,1.172-3.609,1.172c-0.625,0-1.332-0.104-2.123-0.312
			c-0.791-0.209-1.258-0.312-1.404-0.312c-0.125,0-0.232,0.044-0.326,0.133c-0.096,0.09-0.167,0.195-0.219,0.32h-0.405v-5.046
			H193.329z"/>
	</g>
</g>
<g id="Layer_3">
	<g>
		<g>
			<linearGradient id="SVGID_1_" gradientUnits="userSpaceOnUse" x1="7.4912" y1="22.5537" x2="58.6128" y2="22.5537">
				<stop  offset="0" style="stop-color:#878787"/>
				<stop  offset="0.4785" style="stop-color:#B8B8B8;stop-opacity:0.9612"/>
				<stop  offset="1" style="stop-color:#545454;stop-opacity:0.9292"/>
			</linearGradient>
			<path fill="url(#SVGID_1_)" d="M7.491,41.289c2.48-0.253,4.072-0.812,4.775-1.684c0.703-0.869,1.055-2.883,1.055-6.045V9.205
				c0-2.167-0.342-3.577-1.025-4.23c-0.684-0.654-2.237-1.039-4.658-1.156V2.705h11.829l13.779,29.888L46.688,2.705h11.925v1.113
				c-2.227,0.157-3.662,0.561-4.307,1.215c-0.645,0.654-0.967,2.044-0.967,4.172v26.668c0,2.188,0.322,3.587,0.967,4.202
				c0.645,0.614,2.08,1.02,4.307,1.214v1.113H41.827v-1.113c2.421-0.194,3.93-0.629,4.526-1.303s0.894-2.278,0.894-4.815V8.238
				L31.88,42.402h-0.82L15.957,9.644v23.917c0,3.279,0.479,5.416,1.436,6.41c0.625,0.646,2.021,1.084,4.189,1.317V42.4H7.491V41.289
				z"/>
			<linearGradient id="SVGID_2_" gradientUnits="userSpaceOnUse" x1="61.603" y1="22.625" x2="102.3818" y2="22.625">
				<stop  offset="0" style="stop-color:#878787"/>
				<stop  offset="0.4785" style="stop-color:#B8B8B8;stop-opacity:0.9612"/>
				<stop  offset="1" style="stop-color:#545454;stop-opacity:0.9292"/>
			</linearGradient>
			<path fill="url(#SVGID_2_)" d="M89.229,2.969c2.246,0.646,3.535,0.967,3.867,0.967c0.859,0,1.469-0.166,1.832-0.498
				c0.36-0.332,0.668-0.81,0.922-1.436h1.318l0.469,12.627H96.26c-1.229-2.91-2.5-5.078-3.809-6.504
				c-2.363-2.5-5.439-3.75-9.229-3.75c-3.849,0-7.232,1.46-10.151,4.38c-2.92,2.92-4.38,7.73-4.38,14.429
				c0,5.528,1.455,9.843,4.365,12.95c2.91,3.104,6.504,4.657,10.781,4.657c0.722,0,1.572-0.066,2.55-0.204
				c0.977-0.137,1.903-0.353,2.782-0.644c1.425-0.469,2.313-0.873,2.666-1.213c0.353-0.342,0.527-0.844,0.527-1.508v-9.559
				c0-2.317-0.327-3.761-0.981-4.33c-0.654-0.569-2.085-0.923-4.292-1.061V21.16h15.293v1.113c-1.483,0.098-2.471,0.342-2.959,0.732
				c-0.819,0.625-1.229,1.915-1.229,3.867V38.68c0,0.703-1.725,1.641-5.172,2.812c-3.446,1.172-6.762,1.758-9.945,1.758
				c-5.859,0-10.801-1.709-14.824-5.127c-4.434-3.77-6.65-8.827-6.65-15.176c0-5.585,1.768-10.371,5.303-14.355
				C70.791,4.197,75.947,2,82.374,2C84.698,2.002,86.982,2.324,89.229,2.969z"/>
		</g>
		<g>
			<linearGradient id="SVGID_3_" gradientUnits="userSpaceOnUse" x1="53.6372" y1="9.5762" x2="64.9082" y2="9.5762">
				<stop  offset="0" style="stop-color:#878787"/>
				<stop  offset="0.4785" style="stop-color:#B8B8B8;stop-opacity:0.9612"/>
				<stop  offset="1" style="stop-color:#545454;stop-opacity:0.9292"/>
			</linearGradient>
			<path fill="url(#SVGID_3_)" d="M63.228,3.677c0.854,0.607,1.282,1.272,1.282,1.997c0,0.311-0.108,0.6-0.326,0.868
				c-0.218,0.268-0.552,0.402-1.005,0.402c-0.331,0-0.621-0.113-0.871-0.34s-0.432-0.557-0.545-0.991l-0.17-0.68
				c-0.123-0.5-0.335-0.854-0.637-1.062c-0.312-0.198-0.722-0.298-1.232-0.298c-1.076,0-1.985,0.47-2.726,1.411
				c-0.741,0.94-1.111,2.19-1.111,3.75c0,1.428,0.408,2.708,1.225,3.842c0.817,1.135,1.919,1.702,3.307,1.702
				c0.982,0,1.855-0.321,2.62-0.965c0.434-0.369,0.925-0.955,1.473-1.759l0.396,0.241c-0.538,1.134-1.104,2.032-1.699,2.693
				c-1.142,1.267-2.464,1.899-3.965,1.899c-1.473,0-2.775-0.581-3.908-1.742c-1.133-1.161-1.699-2.738-1.699-4.729
				c0-1.954,0.618-3.634,1.855-5.041c1.237-1.407,2.799-2.11,4.687-2.11C61.357,2.766,62.374,3.07,63.228,3.677z"/>
		</g>
		<g>
			<linearGradient id="SVGID_4_" gradientUnits="userSpaceOnUse" x1="100.9702" y1="31.8174" x2="122.4082" y2="31.8174">
				<stop  offset="0" style="stop-color:#878787"/>
				<stop  offset="0.4785" style="stop-color:#B8B8B8;stop-opacity:0.9612"/>
				<stop  offset="1" style="stop-color:#545454;stop-opacity:0.9292"/>
			</linearGradient>
			<path fill="url(#SVGID_4_)" d="M100.971,41.809c1.168-0.123,1.928-0.334,2.281-0.629c0.353-0.296,0.531-1.044,0.531-2.246V24.699
				c0-1.167-0.172-1.917-0.516-2.25c-0.345-0.333-1.109-0.542-2.297-0.625V21.23h8.625c2.904,0,5.362,0.479,7.375,1.438
				c3.625,1.719,5.438,4.792,5.438,9.221c0,1.594-0.326,3.107-0.977,4.547c-0.652,1.438-1.635,2.649-2.945,3.641
				c-0.834,0.625-1.698,1.1-2.594,1.422c-1.638,0.604-3.646,0.906-6.031,0.906h-8.891L100.971,41.809L100.971,41.809z
				 M107.416,40.966c0.255,0.166,0.784,0.25,1.586,0.25c2.5,0,4.557-0.496,6.172-1.485c2.479-1.521,3.719-4.123,3.719-7.804
				c0-3.284-1.021-5.755-3.062-7.413c-1.75-1.418-4.067-2.127-6.953-2.127c-0.719,0-1.206,0.078-1.461,0.234
				c-0.255,0.157-0.383,0.501-0.383,1.032v16.279C107.034,40.454,107.161,40.798,107.416,40.966z"/>
			<linearGradient id="SVGID_5_" gradientUnits="userSpaceOnUse" x1="124.1895" y1="35.2617" x2="137.0352" y2="35.2617">
				<stop  offset="0" style="stop-color:#878787"/>
				<stop  offset="0.4785" style="stop-color:#B8B8B8;stop-opacity:0.9612"/>
				<stop  offset="1" style="stop-color:#545454;stop-opacity:0.9292"/>
			</linearGradient>
			<path fill="url(#SVGID_5_)" d="M134.752,29.27c1.104,1.017,1.656,2.457,1.656,4.319h-9.922c0.104,2.411,0.65,4.168,1.641,5.271
				c0.989,1.104,2.161,1.651,3.516,1.651c1.096,0,2.018-0.284,2.768-0.855s1.441-1.382,2.078-2.433l0.547,0.188
				c-0.428,1.324-1.229,2.551-2.396,3.678c-1.174,1.127-2.607,1.689-4.307,1.689c-1.958,0-3.473-0.738-4.539-2.219
				c-1.066-1.479-1.604-3.183-1.604-5.108c0-2.095,0.621-3.901,1.859-5.423c1.239-1.521,2.854-2.28,4.844-2.28
				C132.361,27.746,133.648,28.254,134.752,29.27z M127.268,30.466c-0.332,0.562-0.572,1.271-0.719,2.125h6.594
				c-0.113-1.043-0.312-1.817-0.594-2.327c-0.511-0.919-1.365-1.375-2.562-1.375C128.799,28.886,127.893,29.413,127.268,30.466z"/>
			<linearGradient id="SVGID_6_" gradientUnits="userSpaceOnUse" x1="139.3926" y1="35.166" x2="148.9043" y2="35.166">
				<stop  offset="0" style="stop-color:#878787"/>
				<stop  offset="0.4785" style="stop-color:#B8B8B8;stop-opacity:0.9612"/>
				<stop  offset="1" style="stop-color:#545454;stop-opacity:0.9292"/>
			</linearGradient>
			<path fill="url(#SVGID_6_)" d="M139.439,37.48h0.517c0.239,1.188,0.562,2.099,0.967,2.732c0.728,1.168,1.792,1.75,3.195,1.75
				c0.778,0,1.396-0.216,1.847-0.646c0.452-0.434,0.678-0.992,0.678-1.682c0-0.438-0.129-0.857-0.391-1.266
				c-0.261-0.406-0.719-0.803-1.375-1.188l-1.749-1c-1.28-0.688-2.224-1.382-2.829-2.078c-0.604-0.698-0.906-1.521-0.906-2.47
				c0-1.168,0.416-2.125,1.25-2.875c0.832-0.75,1.879-1.125,3.142-1.125c0.552,0,1.157,0.104,1.819,0.312
				c0.66,0.208,1.033,0.312,1.117,0.312c0.188,0,0.322-0.026,0.405-0.078c0.083-0.052,0.156-0.135,0.22-0.25h0.375l0.108,4.359
				h-0.483c-0.209-1.01-0.49-1.797-0.845-2.359c-0.646-1.041-1.577-1.562-2.797-1.562c-0.729,0-1.302,0.224-1.72,0.672
				c-0.416,0.448-0.625,0.974-0.625,1.578c0,0.958,0.72,1.812,2.156,2.562l2.062,1.109c2.219,1.208,3.327,2.615,3.327,4.219
				c0,1.229-0.459,2.234-1.381,3.018c-0.92,0.779-2.123,1.172-3.609,1.172c-0.624,0-1.331-0.104-2.122-0.312
				c-0.791-0.209-1.258-0.312-1.403-0.312c-0.125,0-0.234,0.044-0.328,0.133c-0.095,0.09-0.166,0.194-0.218,0.319h-0.405V37.48
				H139.439z"/>
			<linearGradient id="SVGID_7_" gradientUnits="userSpaceOnUse" x1="150.8457" y1="31.4951" x2="158.4395" y2="31.4951">
				<stop  offset="0" style="stop-color:#878787"/>
				<stop  offset="0.4785" style="stop-color:#B8B8B8;stop-opacity:0.9612"/>
				<stop  offset="1" style="stop-color:#545454;stop-opacity:0.9292"/>
			</linearGradient>
			<path fill="url(#SVGID_7_)" d="M150.846,41.966c1.114-0.104,1.817-0.295,2.109-0.569c0.292-0.276,0.438-1.023,0.438-2.242V31.7
				c0-0.677-0.047-1.146-0.141-1.406c-0.156-0.427-0.484-0.642-0.984-0.642c-0.113,0-0.227,0.012-0.336,0.031
				c-0.107,0.021-0.425,0.104-0.943,0.25V29.45l0.672-0.22c1.822-0.594,3.094-1.042,3.812-1.343
				c0.293-0.125,0.479-0.188,0.562-0.188c0.021,0.073,0.03,0.151,0.03,0.234v11.219c0,1.188,0.144,1.933,0.431,2.232
				c0.286,0.303,0.937,0.496,1.944,0.578V42.4h-7.594V41.966L150.846,41.966z M153.33,21.072c0.312-0.321,0.697-0.482,1.156-0.482
				c0.447,0,0.83,0.158,1.147,0.475c0.316,0.316,0.478,0.702,0.478,1.158c0,0.446-0.159,0.827-0.478,1.143
				c-0.317,0.316-0.7,0.474-1.147,0.474c-0.459,0-0.844-0.158-1.156-0.474c-0.312-0.316-0.469-0.697-0.469-1.143
				C152.861,21.777,153.018,21.393,153.33,21.072z"/>
			<linearGradient id="SVGID_8_" gradientUnits="userSpaceOnUse" x1="159.958" y1="38.5176" x2="174.1445" y2="38.5176">
				<stop  offset="0" style="stop-color:#878787"/>
				<stop  offset="0.4785" style="stop-color:#B8B8B8;stop-opacity:0.9612"/>
				<stop  offset="1" style="stop-color:#545454;stop-opacity:0.9292"/>
			</linearGradient>
			<path fill="url(#SVGID_8_)" d="M162.073,35.48c-0.526-0.803-0.789-1.703-0.789-2.703c0-1.221,0.483-2.375,1.452-3.471
				c0.97-1.093,2.339-1.641,4.109-1.641c0.76,0,1.6,0.18,2.516,0.539c0.918,0.359,1.798,0.539,2.642,0.539
				c0.22,0,0.55-0.008,0.992-0.023c0.442-0.015,0.763-0.021,0.961-0.021h0.188v1.267h-2.703c0.188,0.438,0.332,0.817,0.438,1.142
				c0.178,0.604,0.266,1.177,0.266,1.719c0,1.188-0.49,2.279-1.477,3.273c-0.984,0.993-2.311,1.491-3.977,1.491
				c-0.262,0-0.729-0.048-1.406-0.142c-0.303,0-0.703,0.255-1.203,0.767c-0.5,0.511-0.75,0.927-0.75,1.25
				c0,0.332,0.365,0.577,1.096,0.733c0.479,0.104,1.012,0.156,1.596,0.156c2.683,0,4.502,0.15,5.461,0.451
				c1.576,0.49,2.363,1.543,2.363,3.156c0,1.646-0.918,2.959-2.758,3.938c-1.839,0.979-3.695,1.47-5.57,1.47
				c-1.707,0-3.062-0.347-4.062-1.039s-1.5-1.419-1.5-2.181c0-0.375,0.132-0.741,0.396-1.103c0.266-0.358,0.787-0.894,1.564-1.603
				l1.027-0.922l0.187-0.188c-0.476-0.188-0.832-0.371-1.069-0.548c-0.414-0.323-0.621-0.692-0.621-1.108
				c0-0.385,0.182-0.811,0.539-1.272c0.359-0.464,1.127-1.216,2.307-2.259C163.335,36.841,162.6,36.282,162.073,35.48z
				 M163.729,47.105c0.984,0.332,2.113,0.5,3.385,0.5c1.729,0,3.135-0.301,4.219-0.898c1.083-0.6,1.625-1.336,1.625-2.211
				c0-0.698-0.438-1.162-1.314-1.391c-0.543-0.137-1.57-0.215-3.084-0.234c-0.387-0.012-0.793-0.021-1.223-0.039
				c-0.428-0.016-0.818-0.034-1.174-0.055c-0.229-0.012-0.602-0.053-1.11-0.125c-0.513-0.073-0.894-0.137-1.144-0.188
				c-0.125,0-0.432,0.328-0.913,0.984c-0.494,0.667-0.741,1.28-0.741,1.844C162.252,46.168,162.745,46.771,163.729,47.105z
				 M168.689,36.371c0.625-0.5,0.938-1.37,0.938-2.607c0-0.99-0.253-2.104-0.758-3.346c-0.506-1.238-1.348-1.858-2.521-1.858
				c-1.021,0-1.726,0.483-2.109,1.454c-0.198,0.51-0.297,1.141-0.297,1.891c0,1.271,0.307,2.412,0.922,3.422
				c0.613,1.012,1.41,1.516,2.391,1.516C167.825,36.841,168.305,36.684,168.689,36.371z"/>
			<linearGradient id="SVGID_9_" gradientUnits="userSpaceOnUse" x1="175.626" y1="35.043" x2="190.626" y2="35.043">
				<stop  offset="0" style="stop-color:#878787"/>
				<stop  offset="0.4785" style="stop-color:#B8B8B8;stop-opacity:0.9612"/>
				<stop  offset="1" style="stop-color:#545454;stop-opacity:0.9292"/>
			</linearGradient>
			<path fill="url(#SVGID_9_)" d="M175.689,41.966c0.74-0.095,1.259-0.278,1.556-0.556c0.297-0.276,0.444-0.895,0.444-1.854V31.62
				c0-0.661-0.062-1.126-0.188-1.396c-0.196-0.394-0.604-0.59-1.219-0.59c-0.095,0-0.189,0.006-0.289,0.018
				c-0.101,0.011-0.224,0.025-0.367,0.047v-0.547c0.429-0.125,1.438-0.448,3.031-0.969l1.469-0.484c0.073,0,0.117,0.026,0.133,0.078
				c0.017,0.052,0.023,0.125,0.023,0.219v2.297c0.956-0.896,1.704-1.51,2.245-1.844c0.812-0.51,1.652-0.766,2.525-0.766
				c0.707,0,1.354,0.203,1.936,0.609c1.123,0.792,1.685,2.203,1.685,4.233v7.298c0,0.75,0.149,1.292,0.449,1.625
				s0.801,0.505,1.504,0.516v0.438h-6.672v-0.438c0.76-0.104,1.292-0.313,1.594-0.633c0.304-0.315,0.453-1.008,0.453-2.07v-6.672
				c0-0.896-0.166-1.638-0.497-2.228c-0.332-0.588-0.941-0.883-1.833-0.883c-0.61,0-1.231,0.209-1.864,0.625
				c-0.353,0.24-0.809,0.637-1.367,1.188v8.75c0,0.75,0.168,1.254,0.5,1.508c0.334,0.257,0.858,0.396,1.578,0.414v0.438h-6.828
				V41.966L175.689,41.966z"/>
			<linearGradient id="SVGID_10_" gradientUnits="userSpaceOnUse" x1="192.7363" y1="35.166" x2="202.25" y2="35.166">
				<stop  offset="0" style="stop-color:#878787"/>
				<stop  offset="0.4785" style="stop-color:#B8B8B8;stop-opacity:0.9612"/>
				<stop  offset="1" style="stop-color:#545454;stop-opacity:0.9292"/>
			</linearGradient>
			<path fill="url(#SVGID_10_)" d="M192.784,37.48h0.517c0.238,1.188,0.562,2.099,0.967,2.732c0.728,1.168,1.791,1.75,3.194,1.75
				c0.779,0,1.396-0.216,1.847-0.646c0.453-0.434,0.68-0.992,0.68-1.682c0-0.438-0.131-0.857-0.393-1.266
				c-0.261-0.406-0.719-0.803-1.375-1.188l-1.748-1c-1.281-0.688-2.225-1.382-2.83-2.078c-0.604-0.698-0.906-1.521-0.906-2.47
				c0-1.168,0.418-2.125,1.25-2.875s1.881-1.125,3.142-1.125c0.554,0,1.159,0.104,1.82,0.312c0.659,0.208,1.032,0.312,1.116,0.312
				c0.188,0,0.322-0.026,0.406-0.078c0.082-0.052,0.155-0.135,0.219-0.25h0.375l0.108,4.359h-0.483
				c-0.209-1.01-0.489-1.797-0.844-2.359c-0.646-1.041-1.578-1.562-2.797-1.562c-0.729,0-1.303,0.224-1.72,0.672
				s-0.625,0.974-0.625,1.578c0,0.958,0.72,1.812,2.155,2.562l2.062,1.109c2.219,1.208,3.328,2.615,3.328,4.219
				c0,1.229-0.46,2.234-1.381,3.018c-0.92,0.779-2.124,1.172-3.609,1.172c-0.625,0-1.332-0.104-2.123-0.312
				c-0.791-0.209-1.258-0.312-1.404-0.312c-0.125,0-0.232,0.044-0.326,0.133c-0.096,0.09-0.167,0.194-0.219,0.319h-0.405V37.48
				H192.784z"/>
		</g>
	</g>
	<g>
		<g>
			<linearGradient id="SVGID_11_" gradientUnits="userSpaceOnUse" x1="7.4912" y1="25.6851" x2="202.25" y2="25.6851">
				<stop  offset="0" style="stop-color:#878787"/>
				<stop  offset="0.4785" style="stop-color:#B8B8B8;stop-opacity:0.9612"/>
				<stop  offset="1" style="stop-color:#545454;stop-opacity:0.9292"/>
			</linearGradient>
			<path fill="url(#SVGID_11_)" d="M7.491,41.289c2.48-0.253,4.072-0.812,4.775-1.684c0.703-0.869,1.055-2.883,1.055-6.045V9.205
				c0-2.167-0.342-3.577-1.025-4.23c-0.684-0.654-2.237-1.039-4.658-1.156V2.705h11.829l13.779,29.888L46.688,2.705h11.925v1.113
				c-2.227,0.157-3.662,0.561-4.307,1.215c-0.645,0.654-0.967,2.044-0.967,4.172v26.668c0,2.188,0.322,3.587,0.967,4.202
				c0.645,0.614,2.08,1.02,4.307,1.214v1.113H41.827v-1.113c2.421-0.194,3.93-0.629,4.526-1.303s0.894-2.278,0.894-4.815V8.238
				L31.88,42.402h-0.82L15.957,9.644v23.917c0,3.279,0.479,5.416,1.436,6.41c0.625,0.646,2.021,1.084,4.189,1.317V42.4H7.491V41.289
				z"/>
			<linearGradient id="SVGID_12_" gradientUnits="userSpaceOnUse" x1="7.4912" y1="25.6851" x2="202.25" y2="25.6851">
				<stop  offset="0" style="stop-color:#878787"/>
				<stop  offset="0.4785" style="stop-color:#B8B8B8;stop-opacity:0.9612"/>
				<stop  offset="1" style="stop-color:#545454;stop-opacity:0.9292"/>
			</linearGradient>
			<path fill="url(#SVGID_12_)" d="M89.229,2.969c2.246,0.646,3.535,0.967,3.867,0.967c0.859,0,1.469-0.166,1.832-0.498
				c0.36-0.332,0.668-0.81,0.922-1.436h1.318l0.469,12.627H96.26c-1.229-2.91-2.5-5.078-3.809-6.504
				c-2.363-2.5-5.439-3.75-9.229-3.75c-3.849,0-7.232,1.46-10.151,4.38c-2.92,2.92-4.38,7.73-4.38,14.429
				c0,5.528,1.455,9.843,4.365,12.95c2.91,3.104,6.504,4.657,10.781,4.657c0.722,0,1.572-0.066,2.55-0.204
				c0.977-0.137,1.903-0.353,2.782-0.644c1.425-0.469,2.313-0.873,2.666-1.213c0.353-0.342,0.527-0.844,0.527-1.508v-9.559
				c0-2.317-0.327-3.761-0.981-4.33c-0.654-0.569-2.085-0.923-4.292-1.061V21.16h15.293v1.113c-1.483,0.098-2.471,0.342-2.959,0.732
				c-0.819,0.625-1.229,1.915-1.229,3.867V38.68c0,0.703-1.725,1.641-5.172,2.812c-3.446,1.172-6.762,1.758-9.945,1.758
				c-5.859,0-10.801-1.709-14.824-5.127c-4.434-3.77-6.65-8.827-6.65-15.176c0-5.585,1.768-10.371,5.303-14.355
				C70.791,4.197,75.947,2,82.374,2C84.698,2.002,86.982,2.324,89.229,2.969z"/>
		</g>
		<g>
			<linearGradient id="SVGID_13_" gradientUnits="userSpaceOnUse" x1="7.4912" y1="25.6851" x2="202.25" y2="25.6851">
				<stop  offset="0" style="stop-color:#878787"/>
				<stop  offset="0.4785" style="stop-color:#B8B8B8;stop-opacity:0.9612"/>
				<stop  offset="1" style="stop-color:#545454;stop-opacity:0.9292"/>
			</linearGradient>
			<path fill="url(#SVGID_13_)" d="M63.228,3.677c0.854,0.607,1.282,1.272,1.282,1.997c0,0.311-0.108,0.6-0.326,0.868
				c-0.218,0.268-0.552,0.402-1.005,0.402c-0.331,0-0.621-0.113-0.871-0.34s-0.432-0.557-0.545-0.991l-0.17-0.68
				c-0.123-0.5-0.335-0.854-0.637-1.062c-0.312-0.198-0.722-0.298-1.232-0.298c-1.076,0-1.985,0.47-2.726,1.411
				c-0.741,0.94-1.111,2.19-1.111,3.75c0,1.428,0.408,2.708,1.225,3.842c0.817,1.135,1.919,1.702,3.307,1.702
				c0.982,0,1.855-0.321,2.62-0.965c0.434-0.369,0.925-0.955,1.473-1.759l0.396,0.241c-0.538,1.134-1.104,2.032-1.699,2.693
				c-1.142,1.267-2.464,1.899-3.965,1.899c-1.473,0-2.775-0.581-3.908-1.742c-1.133-1.161-1.699-2.738-1.699-4.729
				c0-1.954,0.618-3.634,1.855-5.041c1.237-1.407,2.799-2.11,4.687-2.11C61.357,2.766,62.374,3.07,63.228,3.677z"/>
		</g>
		<g>
			<linearGradient id="SVGID_14_" gradientUnits="userSpaceOnUse" x1="7.4912" y1="25.6851" x2="202.25" y2="25.6851">
				<stop  offset="0" style="stop-color:#878787"/>
				<stop  offset="0.4785" style="stop-color:#B8B8B8;stop-opacity:0.9612"/>
				<stop  offset="1" style="stop-color:#545454;stop-opacity:0.9292"/>
			</linearGradient>
			<path fill="url(#SVGID_14_)" d="M100.971,41.809c1.168-0.123,1.928-0.334,2.281-0.629c0.353-0.296,0.531-1.044,0.531-2.246
				V24.699c0-1.167-0.172-1.917-0.516-2.25c-0.345-0.333-1.109-0.542-2.297-0.625V21.23h8.625c2.904,0,5.362,0.479,7.375,1.438
				c3.625,1.719,5.438,4.792,5.438,9.221c0,1.594-0.326,3.107-0.977,4.547c-0.652,1.438-1.635,2.649-2.945,3.641
				c-0.834,0.625-1.698,1.1-2.594,1.422c-1.638,0.604-3.646,0.906-6.031,0.906h-8.891L100.971,41.809L100.971,41.809z
				 M107.416,40.966c0.255,0.166,0.784,0.25,1.586,0.25c2.5,0,4.557-0.496,6.172-1.485c2.479-1.521,3.719-4.123,3.719-7.804
				c0-3.284-1.021-5.755-3.062-7.413c-1.75-1.418-4.067-2.127-6.953-2.127c-0.719,0-1.206,0.078-1.461,0.234
				c-0.255,0.157-0.383,0.501-0.383,1.032v16.279C107.034,40.454,107.161,40.798,107.416,40.966z"/>
			<linearGradient id="SVGID_15_" gradientUnits="userSpaceOnUse" x1="7.4912" y1="25.6851" x2="202.25" y2="25.6851">
				<stop  offset="0" style="stop-color:#878787"/>
				<stop  offset="0.4785" style="stop-color:#B8B8B8;stop-opacity:0.9612"/>
				<stop  offset="1" style="stop-color:#545454;stop-opacity:0.9292"/>
			</linearGradient>
			<path fill="url(#SVGID_15_)" d="M134.752,29.27c1.104,1.017,1.656,2.457,1.656,4.319h-9.922c0.104,2.411,0.65,4.168,1.641,5.271
				c0.989,1.104,2.161,1.651,3.516,1.651c1.096,0,2.018-0.284,2.768-0.855s1.441-1.382,2.078-2.433l0.547,0.188
				c-0.428,1.324-1.229,2.551-2.396,3.678c-1.174,1.127-2.607,1.689-4.307,1.689c-1.958,0-3.473-0.738-4.539-2.219
				c-1.066-1.479-1.604-3.183-1.604-5.108c0-2.095,0.621-3.901,1.859-5.423c1.239-1.521,2.854-2.28,4.844-2.28
				C132.361,27.746,133.648,28.254,134.752,29.27z M127.268,30.466c-0.332,0.562-0.572,1.271-0.719,2.125h6.594
				c-0.113-1.043-0.312-1.817-0.594-2.327c-0.511-0.919-1.365-1.375-2.562-1.375C128.799,28.886,127.893,29.413,127.268,30.466z"/>
			<linearGradient id="SVGID_16_" gradientUnits="userSpaceOnUse" x1="7.4912" y1="25.6851" x2="202.25" y2="25.6851">
				<stop  offset="0" style="stop-color:#878787"/>
				<stop  offset="0.4785" style="stop-color:#B8B8B8;stop-opacity:0.9612"/>
				<stop  offset="1" style="stop-color:#545454;stop-opacity:0.9292"/>
			</linearGradient>
			<path fill="url(#SVGID_16_)" d="M139.439,37.48h0.517c0.239,1.188,0.562,2.099,0.967,2.732c0.728,1.168,1.792,1.75,3.195,1.75
				c0.778,0,1.396-0.216,1.847-0.646c0.452-0.434,0.678-0.992,0.678-1.682c0-0.438-0.129-0.857-0.391-1.266
				c-0.261-0.406-0.719-0.803-1.375-1.188l-1.749-1c-1.28-0.688-2.224-1.382-2.829-2.078c-0.604-0.698-0.906-1.521-0.906-2.47
				c0-1.168,0.416-2.125,1.25-2.875c0.832-0.75,1.879-1.125,3.142-1.125c0.552,0,1.157,0.104,1.819,0.312
				c0.66,0.208,1.033,0.312,1.117,0.312c0.188,0,0.322-0.026,0.405-0.078c0.083-0.052,0.156-0.135,0.22-0.25h0.375l0.108,4.359
				h-0.483c-0.209-1.01-0.49-1.797-0.845-2.359c-0.646-1.041-1.577-1.562-2.797-1.562c-0.729,0-1.302,0.224-1.72,0.672
				c-0.416,0.448-0.625,0.974-0.625,1.578c0,0.958,0.72,1.812,2.156,2.562l2.062,1.109c2.219,1.208,3.327,2.615,3.327,4.219
				c0,1.229-0.459,2.234-1.381,3.018c-0.92,0.779-2.123,1.172-3.609,1.172c-0.624,0-1.331-0.104-2.122-0.312
				c-0.791-0.209-1.258-0.312-1.403-0.312c-0.125,0-0.234,0.044-0.328,0.133c-0.095,0.09-0.166,0.194-0.218,0.319h-0.405V37.48
				H139.439z"/>
			<linearGradient id="SVGID_17_" gradientUnits="userSpaceOnUse" x1="7.4912" y1="25.6851" x2="202.25" y2="25.6851">
				<stop  offset="0" style="stop-color:#878787"/>
				<stop  offset="0.4785" style="stop-color:#B8B8B8;stop-opacity:0.9612"/>
				<stop  offset="1" style="stop-color:#545454;stop-opacity:0.9292"/>
			</linearGradient>
			<path fill="url(#SVGID_17_)" d="M150.846,41.966c1.114-0.104,1.817-0.295,2.109-0.569c0.292-0.276,0.438-1.023,0.438-2.242V31.7
				c0-0.677-0.047-1.146-0.141-1.406c-0.156-0.427-0.484-0.642-0.984-0.642c-0.113,0-0.227,0.012-0.336,0.031
				c-0.107,0.021-0.425,0.104-0.943,0.25V29.45l0.672-0.22c1.822-0.594,3.094-1.042,3.812-1.343
				c0.293-0.125,0.479-0.188,0.562-0.188c0.021,0.073,0.03,0.151,0.03,0.234v11.219c0,1.188,0.144,1.933,0.431,2.232
				c0.286,0.303,0.937,0.496,1.944,0.578V42.4h-7.594V41.966L150.846,41.966z M153.33,21.072c0.312-0.321,0.697-0.482,1.156-0.482
				c0.447,0,0.83,0.158,1.147,0.475c0.316,0.316,0.478,0.702,0.478,1.158c0,0.446-0.159,0.827-0.478,1.143
				c-0.317,0.316-0.7,0.474-1.147,0.474c-0.459,0-0.844-0.158-1.156-0.474c-0.312-0.316-0.469-0.697-0.469-1.143
				C152.861,21.777,153.018,21.393,153.33,21.072z"/>
			<linearGradient id="SVGID_18_" gradientUnits="userSpaceOnUse" x1="7.4912" y1="25.6851" x2="202.25" y2="25.6851">
				<stop  offset="0" style="stop-color:#878787"/>
				<stop  offset="0.4785" style="stop-color:#B8B8B8;stop-opacity:0.9612"/>
				<stop  offset="1" style="stop-color:#545454;stop-opacity:0.9292"/>
			</linearGradient>
			<path fill="url(#SVGID_18_)" d="M162.073,35.48c-0.526-0.803-0.789-1.703-0.789-2.703c0-1.221,0.483-2.375,1.452-3.471
				c0.97-1.093,2.339-1.641,4.109-1.641c0.76,0,1.6,0.18,2.516,0.539c0.918,0.359,1.798,0.539,2.642,0.539
				c0.22,0,0.55-0.008,0.992-0.023c0.442-0.015,0.763-0.021,0.961-0.021h0.188v1.267h-2.703c0.188,0.438,0.332,0.817,0.438,1.142
				c0.178,0.604,0.266,1.177,0.266,1.719c0,1.188-0.49,2.279-1.477,3.273c-0.984,0.993-2.311,1.491-3.977,1.491
				c-0.262,0-0.729-0.048-1.406-0.142c-0.303,0-0.703,0.255-1.203,0.767c-0.5,0.511-0.75,0.927-0.75,1.25
				c0,0.332,0.365,0.577,1.096,0.733c0.479,0.104,1.012,0.156,1.596,0.156c2.683,0,4.502,0.15,5.461,0.451
				c1.576,0.49,2.363,1.543,2.363,3.156c0,1.646-0.918,2.959-2.758,3.938c-1.839,0.979-3.695,1.47-5.57,1.47
				c-1.707,0-3.062-0.347-4.062-1.039s-1.5-1.419-1.5-2.181c0-0.375,0.132-0.741,0.396-1.103c0.266-0.358,0.787-0.894,1.564-1.603
				l1.027-0.922l0.187-0.188c-0.476-0.188-0.832-0.371-1.069-0.548c-0.414-0.323-0.621-0.692-0.621-1.108
				c0-0.385,0.182-0.811,0.539-1.272c0.359-0.464,1.127-1.216,2.307-2.259C163.335,36.841,162.6,36.282,162.073,35.48z
				 M163.729,47.105c0.984,0.332,2.113,0.5,3.385,0.5c1.729,0,3.135-0.301,4.219-0.898c1.083-0.6,1.625-1.336,1.625-2.211
				c0-0.698-0.438-1.162-1.314-1.391c-0.543-0.137-1.57-0.215-3.084-0.234c-0.387-0.012-0.793-0.021-1.223-0.039
				c-0.428-0.016-0.818-0.034-1.174-0.055c-0.229-0.012-0.602-0.053-1.11-0.125c-0.513-0.073-0.894-0.137-1.144-0.188
				c-0.125,0-0.432,0.328-0.913,0.984c-0.494,0.667-0.741,1.28-0.741,1.844C162.252,46.168,162.745,46.771,163.729,47.105z
				 M168.689,36.371c0.625-0.5,0.938-1.37,0.938-2.607c0-0.99-0.253-2.104-0.758-3.346c-0.506-1.238-1.348-1.858-2.521-1.858
				c-1.021,0-1.726,0.483-2.109,1.454c-0.198,0.51-0.297,1.141-0.297,1.891c0,1.271,0.307,2.412,0.922,3.422
				c0.613,1.012,1.41,1.516,2.391,1.516C167.825,36.841,168.305,36.684,168.689,36.371z"/>
			<linearGradient id="SVGID_19_" gradientUnits="userSpaceOnUse" x1="7.4912" y1="25.6851" x2="202.25" y2="25.6851">
				<stop  offset="0" style="stop-color:#878787"/>
				<stop  offset="0.4785" style="stop-color:#B8B8B8;stop-opacity:0.9612"/>
				<stop  offset="1" style="stop-color:#545454;stop-opacity:0.9292"/>
			</linearGradient>
			<path fill="url(#SVGID_19_)" d="M175.689,41.966c0.74-0.095,1.259-0.278,1.556-0.556c0.297-0.276,0.444-0.895,0.444-1.854V31.62
				c0-0.661-0.062-1.126-0.188-1.396c-0.196-0.394-0.604-0.59-1.219-0.59c-0.095,0-0.189,0.006-0.289,0.018
				c-0.101,0.011-0.224,0.025-0.367,0.047v-0.547c0.429-0.125,1.438-0.448,3.031-0.969l1.469-0.484c0.073,0,0.117,0.026,0.133,0.078
				c0.017,0.052,0.023,0.125,0.023,0.219v2.297c0.956-0.896,1.704-1.51,2.245-1.844c0.812-0.51,1.652-0.766,2.525-0.766
				c0.707,0,1.354,0.203,1.936,0.609c1.123,0.792,1.685,2.203,1.685,4.233v7.298c0,0.75,0.149,1.292,0.449,1.625
				s0.801,0.505,1.504,0.516v0.438h-6.672v-0.438c0.76-0.104,1.292-0.313,1.594-0.633c0.304-0.315,0.453-1.008,0.453-2.07v-6.672
				c0-0.896-0.166-1.638-0.497-2.228c-0.332-0.588-0.941-0.883-1.833-0.883c-0.61,0-1.231,0.209-1.864,0.625
				c-0.353,0.24-0.809,0.637-1.367,1.188v8.75c0,0.75,0.168,1.254,0.5,1.508c0.334,0.257,0.858,0.396,1.578,0.414v0.438h-6.828
				V41.966L175.689,41.966z"/>
			<linearGradient id="SVGID_20_" gradientUnits="userSpaceOnUse" x1="7.4912" y1="25.6851" x2="202.25" y2="25.6851">
				<stop  offset="0" style="stop-color:#878787"/>
				<stop  offset="0.4785" style="stop-color:#B8B8B8;stop-opacity:0.9612"/>
				<stop  offset="1" style="stop-color:#545454;stop-opacity:0.9292"/>
			</linearGradient>
			<path fill="url(#SVGID_20_)" d="M192.784,37.48h0.517c0.238,1.188,0.562,2.099,0.967,2.732c0.728,1.168,1.791,1.75,3.194,1.75
				c0.779,0,1.396-0.216,1.847-0.646c0.453-0.434,0.68-0.992,0.68-1.682c0-0.438-0.131-0.857-0.393-1.266
				c-0.261-0.406-0.719-0.803-1.375-1.188l-1.748-1c-1.281-0.688-2.225-1.382-2.83-2.078c-0.604-0.698-0.906-1.521-0.906-2.47
				c0-1.168,0.418-2.125,1.25-2.875s1.881-1.125,3.142-1.125c0.554,0,1.159,0.104,1.82,0.312c0.659,0.208,1.032,0.312,1.116,0.312
				c0.188,0,0.322-0.026,0.406-0.078c0.082-0.052,0.155-0.135,0.219-0.25h0.375l0.108,4.359h-0.483
				c-0.209-1.01-0.489-1.797-0.844-2.359c-0.646-1.041-1.578-1.562-2.797-1.562c-0.729,0-1.303,0.224-1.72,0.672
				s-0.625,0.974-0.625,1.578c0,0.958,0.72,1.812,2.155,2.562l2.062,1.109c2.219,1.208,3.328,2.615,3.328,4.219
				c0,1.229-0.46,2.234-1.381,3.018c-0.92,0.779-2.124,1.172-3.609,1.172c-0.625,0-1.332-0.104-2.123-0.312
				c-0.791-0.209-1.258-0.312-1.404-0.312c-0.125,0-0.232,0.044-0.326,0.133c-0.096,0.09-0.167,0.194-0.219,0.319h-0.405V37.48
				H192.784z"/>
		</g>
	</g>
	<g>
		<g>
			<linearGradient id="SVGID_21_" gradientUnits="userSpaceOnUse" x1="7.4912" y1="25.6851" x2="202.25" y2="25.6851">
				<stop  offset="0.2147" style="stop-color:#707070;stop-opacity:0.9612"/>
				<stop  offset="0.5644" style="stop-color:#606060;stop-opacity:0.9324"/>
				<stop  offset="1" style="stop-color:#5E5E5E;stop-opacity:0.9292"/>
			</linearGradient>
			<path fill="url(#SVGID_21_)" d="M7.491,41.289c2.48-0.253,4.072-0.812,4.775-1.684c0.703-0.869,1.055-2.883,1.055-6.045V9.205
				c0-2.167-0.342-3.577-1.025-4.23c-0.684-0.654-2.237-1.039-4.658-1.156V2.705h11.829l13.779,29.888L46.688,2.705h11.925v1.113
				c-2.227,0.157-3.662,0.561-4.307,1.215c-0.645,0.654-0.967,2.044-0.967,4.172v26.668c0,2.188,0.322,3.587,0.967,4.202
				c0.645,0.614,2.08,1.02,4.307,1.214v1.113H41.827v-1.113c2.421-0.194,3.93-0.629,4.526-1.303s0.894-2.278,0.894-4.815V8.238
				L31.88,42.402h-0.82L15.957,9.644v23.917c0,3.279,0.479,5.416,1.436,6.41c0.625,0.646,2.021,1.084,4.189,1.317V42.4H7.491V41.289
				z"/>
			<linearGradient id="SVGID_22_" gradientUnits="userSpaceOnUse" x1="7.4912" y1="25.6851" x2="202.25" y2="25.6851">
				<stop  offset="0.2147" style="stop-color:#707070;stop-opacity:0.9612"/>
				<stop  offset="0.5644" style="stop-color:#606060;stop-opacity:0.9324"/>
				<stop  offset="1" style="stop-color:#5E5E5E;stop-opacity:0.9292"/>
			</linearGradient>
			<path fill="url(#SVGID_22_)" d="M89.229,2.969c2.246,0.646,3.535,0.967,3.867,0.967c0.859,0,1.469-0.166,1.832-0.498
				c0.36-0.332,0.668-0.81,0.922-1.436h1.318l0.469,12.627H96.26c-1.229-2.91-2.5-5.078-3.809-6.504
				c-2.363-2.5-5.439-3.75-9.229-3.75c-3.849,0-7.232,1.46-10.151,4.38c-2.92,2.92-4.38,7.73-4.38,14.429
				c0,5.528,1.455,9.843,4.365,12.95c2.91,3.104,6.504,4.657,10.781,4.657c0.722,0,1.572-0.066,2.55-0.204
				c0.977-0.137,1.903-0.353,2.782-0.644c1.425-0.469,2.313-0.873,2.666-1.213c0.353-0.342,0.527-0.844,0.527-1.508v-9.559
				c0-2.317-0.327-3.761-0.981-4.33c-0.654-0.569-2.085-0.923-4.292-1.061V21.16h15.293v1.113c-1.483,0.098-2.471,0.342-2.959,0.732
				c-0.819,0.625-1.229,1.915-1.229,3.867V38.68c0,0.703-1.725,1.641-5.172,2.812c-3.446,1.172-6.762,1.758-9.945,1.758
				c-5.859,0-10.801-1.709-14.824-5.127c-4.434-3.77-6.65-8.827-6.65-15.176c0-5.585,1.768-10.371,5.303-14.355
				C70.791,4.197,75.947,2,82.374,2C84.698,2.002,86.982,2.324,89.229,2.969z"/>
		</g>
		<g>
			<linearGradient id="SVGID_23_" gradientUnits="userSpaceOnUse" x1="7.4912" y1="25.6851" x2="202.25" y2="25.6851">
				<stop  offset="0.2147" style="stop-color:#707070;stop-opacity:0.9612"/>
				<stop  offset="0.5644" style="stop-color:#606060;stop-opacity:0.9324"/>
				<stop  offset="1" style="stop-color:#5E5E5E;stop-opacity:0.9292"/>
			</linearGradient>
			<path fill="url(#SVGID_23_)" d="M63.228,3.677c0.854,0.607,1.282,1.272,1.282,1.997c0,0.311-0.108,0.6-0.326,0.868
				c-0.218,0.268-0.552,0.402-1.005,0.402c-0.331,0-0.621-0.113-0.871-0.34s-0.432-0.557-0.545-0.991l-0.17-0.68
				c-0.123-0.5-0.335-0.854-0.637-1.062c-0.312-0.198-0.722-0.298-1.232-0.298c-1.076,0-1.985,0.47-2.726,1.411
				c-0.741,0.94-1.111,2.19-1.111,3.75c0,1.428,0.408,2.708,1.225,3.842c0.817,1.135,1.919,1.702,3.307,1.702
				c0.982,0,1.855-0.321,2.62-0.965c0.434-0.369,0.925-0.955,1.473-1.759l0.396,0.241c-0.538,1.134-1.104,2.032-1.699,2.693
				c-1.142,1.267-2.464,1.899-3.965,1.899c-1.473,0-2.775-0.581-3.908-1.742c-1.133-1.161-1.699-2.738-1.699-4.729
				c0-1.954,0.618-3.634,1.855-5.041c1.237-1.407,2.799-2.11,4.687-2.11C61.357,2.766,62.374,3.07,63.228,3.677z"/>
		</g>
		<g>
			<linearGradient id="SVGID_24_" gradientUnits="userSpaceOnUse" x1="7.4912" y1="25.6851" x2="202.25" y2="25.6851">
				<stop  offset="0.2147" style="stop-color:#707070;stop-opacity:0.9612"/>
				<stop  offset="0.5644" style="stop-color:#606060;stop-opacity:0.9324"/>
				<stop  offset="1" style="stop-color:#5E5E5E;stop-opacity:0.9292"/>
			</linearGradient>
			<path fill="url(#SVGID_24_)" d="M100.971,41.809c1.168-0.123,1.928-0.334,2.281-0.629c0.353-0.296,0.531-1.044,0.531-2.246
				V24.699c0-1.167-0.172-1.917-0.516-2.25c-0.345-0.333-1.109-0.542-2.297-0.625V21.23h8.625c2.904,0,5.362,0.479,7.375,1.438
				c3.625,1.719,5.438,4.792,5.438,9.221c0,1.594-0.326,3.107-0.977,4.547c-0.652,1.438-1.635,2.649-2.945,3.641
				c-0.834,0.625-1.698,1.1-2.594,1.422c-1.638,0.604-3.646,0.906-6.031,0.906h-8.891L100.971,41.809L100.971,41.809z
				 M107.416,40.966c0.255,0.166,0.784,0.25,1.586,0.25c2.5,0,4.557-0.496,6.172-1.485c2.479-1.521,3.719-4.123,3.719-7.804
				c0-3.284-1.021-5.755-3.062-7.413c-1.75-1.418-4.067-2.127-6.953-2.127c-0.719,0-1.206,0.078-1.461,0.234
				c-0.255,0.157-0.383,0.501-0.383,1.032v16.279C107.034,40.454,107.161,40.798,107.416,40.966z"/>
			<linearGradient id="SVGID_25_" gradientUnits="userSpaceOnUse" x1="7.4912" y1="25.6851" x2="202.25" y2="25.6851">
				<stop  offset="0.2147" style="stop-color:#707070;stop-opacity:0.9612"/>
				<stop  offset="0.5644" style="stop-color:#606060;stop-opacity:0.9324"/>
				<stop  offset="1" style="stop-color:#5E5E5E;stop-opacity:0.9292"/>
			</linearGradient>
			<path fill="url(#SVGID_25_)" d="M134.752,29.27c1.104,1.017,1.656,2.457,1.656,4.319h-9.922c0.104,2.411,0.65,4.168,1.641,5.271
				c0.989,1.104,2.161,1.651,3.516,1.651c1.096,0,2.018-0.284,2.768-0.855s1.441-1.382,2.078-2.433l0.547,0.188
				c-0.428,1.324-1.229,2.551-2.396,3.678c-1.174,1.127-2.607,1.689-4.307,1.689c-1.958,0-3.473-0.738-4.539-2.219
				c-1.066-1.479-1.604-3.183-1.604-5.108c0-2.095,0.621-3.901,1.859-5.423c1.239-1.521,2.854-2.28,4.844-2.28
				C132.361,27.746,133.648,28.254,134.752,29.27z M127.268,30.466c-0.332,0.562-0.572,1.271-0.719,2.125h6.594
				c-0.113-1.043-0.312-1.817-0.594-2.327c-0.511-0.919-1.365-1.375-2.562-1.375C128.799,28.886,127.893,29.413,127.268,30.466z"/>
			<linearGradient id="SVGID_26_" gradientUnits="userSpaceOnUse" x1="7.4912" y1="25.6851" x2="202.25" y2="25.6851">
				<stop  offset="0.2147" style="stop-color:#707070;stop-opacity:0.9612"/>
				<stop  offset="0.5644" style="stop-color:#606060;stop-opacity:0.9324"/>
				<stop  offset="1" style="stop-color:#5E5E5E;stop-opacity:0.9292"/>
			</linearGradient>
			<path fill="url(#SVGID_26_)" d="M139.439,37.48h0.517c0.239,1.188,0.562,2.099,0.967,2.732c0.728,1.168,1.792,1.75,3.195,1.75
				c0.778,0,1.396-0.216,1.847-0.646c0.452-0.434,0.678-0.992,0.678-1.682c0-0.438-0.129-0.857-0.391-1.266
				c-0.261-0.406-0.719-0.803-1.375-1.188l-1.749-1c-1.28-0.688-2.224-1.382-2.829-2.078c-0.604-0.698-0.906-1.521-0.906-2.47
				c0-1.168,0.416-2.125,1.25-2.875c0.832-0.75,1.879-1.125,3.142-1.125c0.552,0,1.157,0.104,1.819,0.312
				c0.66,0.208,1.033,0.312,1.117,0.312c0.188,0,0.322-0.026,0.405-0.078c0.083-0.052,0.156-0.135,0.22-0.25h0.375l0.108,4.359
				h-0.483c-0.209-1.01-0.49-1.797-0.845-2.359c-0.646-1.041-1.577-1.562-2.797-1.562c-0.729,0-1.302,0.224-1.72,0.672
				c-0.416,0.448-0.625,0.974-0.625,1.578c0,0.958,0.72,1.812,2.156,2.562l2.062,1.109c2.219,1.208,3.327,2.615,3.327,4.219
				c0,1.229-0.459,2.234-1.381,3.018c-0.92,0.779-2.123,1.172-3.609,1.172c-0.624,0-1.331-0.104-2.122-0.312
				c-0.791-0.209-1.258-0.312-1.403-0.312c-0.125,0-0.234,0.044-0.328,0.133c-0.095,0.09-0.166,0.194-0.218,0.319h-0.405V37.48
				H139.439z"/>
			<linearGradient id="SVGID_27_" gradientUnits="userSpaceOnUse" x1="7.4912" y1="25.6851" x2="202.25" y2="25.6851">
				<stop  offset="0.2147" style="stop-color:#707070;stop-opacity:0.9612"/>
				<stop  offset="0.5644" style="stop-color:#606060;stop-opacity:0.9324"/>
				<stop  offset="1" style="stop-color:#5E5E5E;stop-opacity:0.9292"/>
			</linearGradient>
			<path fill="url(#SVGID_27_)" d="M150.846,41.966c1.114-0.104,1.817-0.295,2.109-0.569c0.292-0.276,0.438-1.023,0.438-2.242V31.7
				c0-0.677-0.047-1.146-0.141-1.406c-0.156-0.427-0.484-0.642-0.984-0.642c-0.113,0-0.227,0.012-0.336,0.031
				c-0.107,0.021-0.425,0.104-0.943,0.25V29.45l0.672-0.22c1.822-0.594,3.094-1.042,3.812-1.343
				c0.293-0.125,0.479-0.188,0.562-0.188c0.021,0.073,0.03,0.151,0.03,0.234v11.219c0,1.188,0.144,1.933,0.431,2.232
				c0.286,0.303,0.937,0.496,1.944,0.578V42.4h-7.594V41.966L150.846,41.966z M153.33,21.072c0.312-0.321,0.697-0.482,1.156-0.482
				c0.447,0,0.83,0.158,1.147,0.475c0.316,0.316,0.478,0.702,0.478,1.158c0,0.446-0.159,0.827-0.478,1.143
				c-0.317,0.316-0.7,0.474-1.147,0.474c-0.459,0-0.844-0.158-1.156-0.474c-0.312-0.316-0.469-0.697-0.469-1.143
				C152.861,21.777,153.018,21.393,153.33,21.072z"/>
			<linearGradient id="SVGID_28_" gradientUnits="userSpaceOnUse" x1="7.4912" y1="25.6851" x2="202.25" y2="25.6851">
				<stop  offset="0.2147" style="stop-color:#707070;stop-opacity:0.9612"/>
				<stop  offset="0.5644" style="stop-color:#606060;stop-opacity:0.9324"/>
				<stop  offset="1" style="stop-color:#5E5E5E;stop-opacity:0.9292"/>
			</linearGradient>
			<path fill="url(#SVGID_28_)" d="M162.073,35.48c-0.526-0.803-0.789-1.703-0.789-2.703c0-1.221,0.483-2.375,1.452-3.471
				c0.97-1.093,2.339-1.641,4.109-1.641c0.76,0,1.6,0.18,2.516,0.539c0.918,0.359,1.798,0.539,2.642,0.539
				c0.22,0,0.55-0.008,0.992-0.023c0.442-0.015,0.763-0.021,0.961-0.021h0.188v1.267h-2.703c0.188,0.438,0.332,0.817,0.438,1.142
				c0.178,0.604,0.266,1.177,0.266,1.719c0,1.188-0.49,2.279-1.477,3.273c-0.984,0.993-2.311,1.491-3.977,1.491
				c-0.262,0-0.729-0.048-1.406-0.142c-0.303,0-0.703,0.255-1.203,0.767c-0.5,0.511-0.75,0.927-0.75,1.25
				c0,0.332,0.365,0.577,1.096,0.733c0.479,0.104,1.012,0.156,1.596,0.156c2.683,0,4.502,0.15,5.461,0.451
				c1.576,0.49,2.363,1.543,2.363,3.156c0,1.646-0.918,2.959-2.758,3.938c-1.839,0.979-3.695,1.47-5.57,1.47
				c-1.707,0-3.062-0.347-4.062-1.039s-1.5-1.419-1.5-2.181c0-0.375,0.132-0.741,0.396-1.103c0.266-0.358,0.787-0.894,1.564-1.603
				l1.027-0.922l0.187-0.188c-0.476-0.188-0.832-0.371-1.069-0.548c-0.414-0.323-0.621-0.692-0.621-1.108
				c0-0.385,0.182-0.811,0.539-1.272c0.359-0.464,1.127-1.216,2.307-2.259C163.335,36.841,162.6,36.282,162.073,35.48z
				 M163.729,47.105c0.984,0.332,2.113,0.5,3.385,0.5c1.729,0,3.135-0.301,4.219-0.898c1.083-0.6,1.625-1.336,1.625-2.211
				c0-0.698-0.438-1.162-1.314-1.391c-0.543-0.137-1.57-0.215-3.084-0.234c-0.387-0.012-0.793-0.021-1.223-0.039
				c-0.428-0.016-0.818-0.034-1.174-0.055c-0.229-0.012-0.602-0.053-1.11-0.125c-0.513-0.073-0.894-0.137-1.144-0.188
				c-0.125,0-0.432,0.328-0.913,0.984c-0.494,0.667-0.741,1.28-0.741,1.844C162.252,46.168,162.745,46.771,163.729,47.105z
				 M168.689,36.371c0.625-0.5,0.938-1.37,0.938-2.607c0-0.99-0.253-2.104-0.758-3.346c-0.506-1.238-1.348-1.858-2.521-1.858
				c-1.021,0-1.726,0.483-2.109,1.454c-0.198,0.51-0.297,1.141-0.297,1.891c0,1.271,0.307,2.412,0.922,3.422
				c0.613,1.012,1.41,1.516,2.391,1.516C167.825,36.841,168.305,36.684,168.689,36.371z"/>
			<linearGradient id="SVGID_29_" gradientUnits="userSpaceOnUse" x1="7.4912" y1="25.6851" x2="202.25" y2="25.6851">
				<stop  offset="0.2147" style="stop-color:#707070;stop-opacity:0.9612"/>
				<stop  offset="0.5644" style="stop-color:#606060;stop-opacity:0.9324"/>
				<stop  offset="1" style="stop-color:#5E5E5E;stop-opacity:0.9292"/>
			</linearGradient>
			<path fill="url(#SVGID_29_)" d="M175.689,41.966c0.74-0.095,1.259-0.278,1.556-0.556c0.297-0.276,0.444-0.895,0.444-1.854V31.62
				c0-0.661-0.062-1.126-0.188-1.396c-0.196-0.394-0.604-0.59-1.219-0.59c-0.095,0-0.189,0.006-0.289,0.018
				c-0.101,0.011-0.224,0.025-0.367,0.047v-0.547c0.429-0.125,1.438-0.448,3.031-0.969l1.469-0.484c0.073,0,0.117,0.026,0.133,0.078
				c0.017,0.052,0.023,0.125,0.023,0.219v2.297c0.956-0.896,1.704-1.51,2.245-1.844c0.812-0.51,1.652-0.766,2.525-0.766
				c0.707,0,1.354,0.203,1.936,0.609c1.123,0.792,1.685,2.203,1.685,4.233v7.298c0,0.75,0.149,1.292,0.449,1.625
				s0.801,0.505,1.504,0.516v0.438h-6.672v-0.438c0.76-0.104,1.292-0.313,1.594-0.633c0.304-0.315,0.453-1.008,0.453-2.07v-6.672
				c0-0.896-0.166-1.638-0.497-2.228c-0.332-0.588-0.941-0.883-1.833-0.883c-0.61,0-1.231,0.209-1.864,0.625
				c-0.353,0.24-0.809,0.637-1.367,1.188v8.75c0,0.75,0.168,1.254,0.5,1.508c0.334,0.257,0.858,0.396,1.578,0.414v0.438h-6.828
				V41.966L175.689,41.966z"/>
			<linearGradient id="SVGID_30_" gradientUnits="userSpaceOnUse" x1="7.4912" y1="25.6851" x2="202.25" y2="25.6851">
				<stop  offset="0.2147" style="stop-color:#707070;stop-opacity:0.9612"/>
				<stop  offset="0.5644" style="stop-color:#606060;stop-opacity:0.9324"/>
				<stop  offset="1" style="stop-color:#5E5E5E;stop-opacity:0.9292"/>
			</linearGradient>
			<path fill="url(#SVGID_30_)" d="M192.784,37.48h0.517c0.238,1.188,0.562,2.099,0.967,2.732c0.728,1.168,1.791,1.75,3.194,1.75
				c0.779,0,1.396-0.216,1.847-0.646c0.453-0.434,0.68-0.992,0.68-1.682c0-0.438-0.131-0.857-0.393-1.266
				c-0.261-0.406-0.719-0.803-1.375-1.188l-1.748-1c-1.281-0.688-2.225-1.382-2.83-2.078c-0.604-0.698-0.906-1.521-0.906-2.47
				c0-1.168,0.418-2.125,1.25-2.875s1.881-1.125,3.142-1.125c0.554,0,1.159,0.104,1.82,0.312c0.659,0.208,1.032,0.312,1.116,0.312
				c0.188,0,0.322-0.026,0.406-0.078c0.082-0.052,0.155-0.135,0.219-0.25h0.375l0.108,4.359h-0.483
				c-0.209-1.01-0.489-1.797-0.844-2.359c-0.646-1.041-1.578-1.562-2.797-1.562c-0.729,0-1.303,0.224-1.72,0.672
				s-0.625,0.974-0.625,1.578c0,0.958,0.72,1.812,2.155,2.562l2.062,1.109c2.219,1.208,3.328,2.615,3.328,4.219
				c0,1.229-0.46,2.234-1.381,3.018c-0.92,0.779-2.124,1.172-3.609,1.172c-0.625,0-1.332-0.104-2.123-0.312
				c-0.791-0.209-1.258-0.312-1.404-0.312c-0.125,0-0.232,0.044-0.326,0.133c-0.096,0.09-0.167,0.194-0.219,0.319h-0.405V37.48
				H192.784z"/>
		</g>
	</g>
	<g>
		<g>
			<linearGradient id="SVGID_31_" gradientUnits="userSpaceOnUse" x1="7.4912" y1="25.6851" x2="202.25" y2="25.6851">
				<stop  offset="0.2147" style="stop-color:#707070;stop-opacity:0.9612"/>
				<stop  offset="0.5644" style="stop-color:#606060;stop-opacity:0.9324"/>
				<stop  offset="1" style="stop-color:#5E5E5E;stop-opacity:0.9292"/>
			</linearGradient>
			<path fill="url(#SVGID_31_)" d="M7.491,41.289c2.48-0.253,4.072-0.812,4.775-1.684c0.703-0.869,1.055-2.883,1.055-6.045V9.205
				c0-2.167-0.342-3.577-1.025-4.23c-0.684-0.654-2.237-1.039-4.658-1.156V2.705h11.829l13.779,29.888L46.688,2.705h11.925v1.113
				c-2.227,0.157-3.662,0.561-4.307,1.215c-0.645,0.654-0.967,2.044-0.967,4.172v26.668c0,2.188,0.322,3.587,0.967,4.202
				c0.645,0.614,2.08,1.02,4.307,1.214v1.113H41.827v-1.113c2.421-0.194,3.93-0.629,4.526-1.303s0.894-2.278,0.894-4.815V8.238
				L31.88,42.402h-0.82L15.957,9.644v23.917c0,3.279,0.479,5.416,1.436,6.41c0.625,0.646,2.021,1.084,4.189,1.317V42.4H7.491V41.289
				z"/>
			<linearGradient id="SVGID_32_" gradientUnits="userSpaceOnUse" x1="7.4912" y1="25.6851" x2="202.25" y2="25.6851">
				<stop  offset="0.2147" style="stop-color:#707070;stop-opacity:0.9612"/>
				<stop  offset="0.5644" style="stop-color:#606060;stop-opacity:0.9324"/>
				<stop  offset="1" style="stop-color:#5E5E5E;stop-opacity:0.9292"/>
			</linearGradient>
			<path fill="url(#SVGID_32_)" d="M89.229,2.969c2.246,0.646,3.535,0.967,3.867,0.967c0.859,0,1.469-0.166,1.832-0.498
				c0.36-0.332,0.668-0.81,0.922-1.436h1.318l0.469,12.627H96.26c-1.229-2.91-2.5-5.078-3.809-6.504
				c-2.363-2.5-5.439-3.75-9.229-3.75c-3.849,0-7.232,1.46-10.151,4.38c-2.92,2.92-4.38,7.73-4.38,14.429
				c0,5.528,1.455,9.843,4.365,12.95c2.91,3.104,6.504,4.657,10.781,4.657c0.722,0,1.572-0.066,2.55-0.204
				c0.977-0.137,1.903-0.353,2.782-0.644c1.425-0.469,2.313-0.873,2.666-1.213c0.353-0.342,0.527-0.844,0.527-1.508v-9.559
				c0-2.317-0.327-3.761-0.981-4.33c-0.654-0.569-2.085-0.923-4.292-1.061V21.16h15.293v1.113c-1.483,0.098-2.471,0.342-2.959,0.732
				c-0.819,0.625-1.229,1.915-1.229,3.867V38.68c0,0.703-1.725,1.641-5.172,2.812c-3.446,1.172-6.762,1.758-9.945,1.758
				c-5.859,0-10.801-1.709-14.824-5.127c-4.434-3.77-6.65-8.827-6.65-15.176c0-5.585,1.768-10.371,5.303-14.355
				C70.791,4.197,75.947,2,82.374,2C84.698,2.002,86.982,2.324,89.229,2.969z"/>
		</g>
		<g>
			<linearGradient id="SVGID_33_" gradientUnits="userSpaceOnUse" x1="7.4912" y1="25.6851" x2="202.25" y2="25.6851">
				<stop  offset="0.2147" style="stop-color:#707070;stop-opacity:0.9612"/>
				<stop  offset="0.5644" style="stop-color:#606060;stop-opacity:0.9324"/>
				<stop  offset="1" style="stop-color:#5E5E5E;stop-opacity:0.9292"/>
			</linearGradient>
			<path fill="url(#SVGID_33_)" d="M63.228,3.677c0.854,0.607,1.282,1.272,1.282,1.997c0,0.311-0.108,0.6-0.326,0.868
				c-0.218,0.268-0.552,0.402-1.005,0.402c-0.331,0-0.621-0.113-0.871-0.34s-0.432-0.557-0.545-0.991l-0.17-0.68
				c-0.123-0.5-0.335-0.854-0.637-1.062c-0.312-0.198-0.722-0.298-1.232-0.298c-1.076,0-1.985,0.47-2.726,1.411
				c-0.741,0.94-1.111,2.19-1.111,3.75c0,1.428,0.408,2.708,1.225,3.842c0.817,1.135,1.919,1.702,3.307,1.702
				c0.982,0,1.855-0.321,2.62-0.965c0.434-0.369,0.925-0.955,1.473-1.759l0.396,0.241c-0.538,1.134-1.104,2.032-1.699,2.693
				c-1.142,1.267-2.464,1.899-3.965,1.899c-1.473,0-2.775-0.581-3.908-1.742c-1.133-1.161-1.699-2.738-1.699-4.729
				c0-1.954,0.618-3.634,1.855-5.041c1.237-1.407,2.799-2.11,4.687-2.11C61.357,2.766,62.374,3.07,63.228,3.677z"/>
		</g>
		<g>
			<linearGradient id="SVGID_34_" gradientUnits="userSpaceOnUse" x1="7.4912" y1="25.6851" x2="202.25" y2="25.6851">
				<stop  offset="0.2147" style="stop-color:#707070;stop-opacity:0.9612"/>
				<stop  offset="0.5644" style="stop-color:#606060;stop-opacity:0.9324"/>
				<stop  offset="1" style="stop-color:#5E5E5E;stop-opacity:0.9292"/>
			</linearGradient>
			<path fill="url(#SVGID_34_)" d="M100.971,41.809c1.168-0.123,1.928-0.334,2.281-0.629c0.353-0.296,0.531-1.044,0.531-2.246
				V24.699c0-1.167-0.172-1.917-0.516-2.25c-0.345-0.333-1.109-0.542-2.297-0.625V21.23h8.625c2.904,0,5.362,0.479,7.375,1.438
				c3.625,1.719,5.438,4.792,5.438,9.221c0,1.594-0.326,3.107-0.977,4.547c-0.652,1.438-1.635,2.649-2.945,3.641
				c-0.834,0.625-1.698,1.1-2.594,1.422c-1.638,0.604-3.646,0.906-6.031,0.906h-8.891L100.971,41.809L100.971,41.809z
				 M107.416,40.966c0.255,0.166,0.784,0.25,1.586,0.25c2.5,0,4.557-0.496,6.172-1.485c2.479-1.521,3.719-4.123,3.719-7.804
				c0-3.284-1.021-5.755-3.062-7.413c-1.75-1.418-4.067-2.127-6.953-2.127c-0.719,0-1.206,0.078-1.461,0.234
				c-0.255,0.157-0.383,0.501-0.383,1.032v16.279C107.034,40.454,107.161,40.798,107.416,40.966z"/>
			<linearGradient id="SVGID_35_" gradientUnits="userSpaceOnUse" x1="7.4912" y1="25.6851" x2="202.25" y2="25.6851">
				<stop  offset="0.2147" style="stop-color:#707070;stop-opacity:0.9612"/>
				<stop  offset="0.5644" style="stop-color:#606060;stop-opacity:0.9324"/>
				<stop  offset="1" style="stop-color:#5E5E5E;stop-opacity:0.9292"/>
			</linearGradient>
			<path fill="url(#SVGID_35_)" d="M134.752,29.27c1.104,1.017,1.656,2.457,1.656,4.319h-9.922c0.104,2.411,0.65,4.168,1.641,5.271
				c0.989,1.104,2.161,1.651,3.516,1.651c1.096,0,2.018-0.284,2.768-0.855s1.441-1.382,2.078-2.433l0.547,0.188
				c-0.428,1.324-1.229,2.551-2.396,3.678c-1.174,1.127-2.607,1.689-4.307,1.689c-1.958,0-3.473-0.738-4.539-2.219
				c-1.066-1.479-1.604-3.183-1.604-5.108c0-2.095,0.621-3.901,1.859-5.423c1.239-1.521,2.854-2.28,4.844-2.28
				C132.361,27.746,133.648,28.254,134.752,29.27z M127.268,30.466c-0.332,0.562-0.572,1.271-0.719,2.125h6.594
				c-0.113-1.043-0.312-1.817-0.594-2.327c-0.511-0.919-1.365-1.375-2.562-1.375C128.799,28.886,127.893,29.413,127.268,30.466z"/>
			<linearGradient id="SVGID_36_" gradientUnits="userSpaceOnUse" x1="7.4912" y1="25.6851" x2="202.25" y2="25.6851">
				<stop  offset="0.2147" style="stop-color:#707070;stop-opacity:0.9612"/>
				<stop  offset="0.5644" style="stop-color:#606060;stop-opacity:0.9324"/>
				<stop  offset="1" style="stop-color:#5E5E5E;stop-opacity:0.9292"/>
			</linearGradient>
			<path fill="url(#SVGID_36_)" d="M139.439,37.48h0.517c0.239,1.188,0.562,2.099,0.967,2.732c0.728,1.168,1.792,1.75,3.195,1.75
				c0.778,0,1.396-0.216,1.847-0.646c0.452-0.434,0.678-0.992,0.678-1.682c0-0.438-0.129-0.857-0.391-1.266
				c-0.261-0.406-0.719-0.803-1.375-1.188l-1.749-1c-1.28-0.688-2.224-1.382-2.829-2.078c-0.604-0.698-0.906-1.521-0.906-2.47
				c0-1.168,0.416-2.125,1.25-2.875c0.832-0.75,1.879-1.125,3.142-1.125c0.552,0,1.157,0.104,1.819,0.312
				c0.66,0.208,1.033,0.312,1.117,0.312c0.188,0,0.322-0.026,0.405-0.078c0.083-0.052,0.156-0.135,0.22-0.25h0.375l0.108,4.359
				h-0.483c-0.209-1.01-0.49-1.797-0.845-2.359c-0.646-1.041-1.577-1.562-2.797-1.562c-0.729,0-1.302,0.224-1.72,0.672
				c-0.416,0.448-0.625,0.974-0.625,1.578c0,0.958,0.72,1.812,2.156,2.562l2.062,1.109c2.219,1.208,3.327,2.615,3.327,4.219
				c0,1.229-0.459,2.234-1.381,3.018c-0.92,0.779-2.123,1.172-3.609,1.172c-0.624,0-1.331-0.104-2.122-0.312
				c-0.791-0.209-1.258-0.312-1.403-0.312c-0.125,0-0.234,0.044-0.328,0.133c-0.095,0.09-0.166,0.194-0.218,0.319h-0.405V37.48
				H139.439z"/>
			<linearGradient id="SVGID_37_" gradientUnits="userSpaceOnUse" x1="7.4912" y1="25.6851" x2="202.25" y2="25.6851">
				<stop  offset="0.2147" style="stop-color:#707070;stop-opacity:0.9612"/>
				<stop  offset="0.5644" style="stop-color:#606060;stop-opacity:0.9324"/>
				<stop  offset="1" style="stop-color:#5E5E5E;stop-opacity:0.9292"/>
			</linearGradient>
			<path fill="url(#SVGID_37_)" d="M150.846,41.966c1.114-0.104,1.817-0.295,2.109-0.569c0.292-0.276,0.438-1.023,0.438-2.242V31.7
				c0-0.677-0.047-1.146-0.141-1.406c-0.156-0.427-0.484-0.642-0.984-0.642c-0.113,0-0.227,0.012-0.336,0.031
				c-0.107,0.021-0.425,0.104-0.943,0.25V29.45l0.672-0.22c1.822-0.594,3.094-1.042,3.812-1.343
				c0.293-0.125,0.479-0.188,0.562-0.188c0.021,0.073,0.03,0.151,0.03,0.234v11.219c0,1.188,0.144,1.933,0.431,2.232
				c0.286,0.303,0.937,0.496,1.944,0.578V42.4h-7.594V41.966L150.846,41.966z M153.33,21.072c0.312-0.321,0.697-0.482,1.156-0.482
				c0.447,0,0.83,0.158,1.147,0.475c0.316,0.316,0.478,0.702,0.478,1.158c0,0.446-0.159,0.827-0.478,1.143
				c-0.317,0.316-0.7,0.474-1.147,0.474c-0.459,0-0.844-0.158-1.156-0.474c-0.312-0.316-0.469-0.697-0.469-1.143
				C152.861,21.777,153.018,21.393,153.33,21.072z"/>
			<linearGradient id="SVGID_38_" gradientUnits="userSpaceOnUse" x1="7.4912" y1="25.6851" x2="202.25" y2="25.6851">
				<stop  offset="0.2147" style="stop-color:#707070;stop-opacity:0.9612"/>
				<stop  offset="0.5644" style="stop-color:#606060;stop-opacity:0.9324"/>
				<stop  offset="1" style="stop-color:#5E5E5E;stop-opacity:0.9292"/>
			</linearGradient>
			<path fill="url(#SVGID_38_)" d="M162.073,35.48c-0.526-0.803-0.789-1.703-0.789-2.703c0-1.221,0.483-2.375,1.452-3.471
				c0.97-1.093,2.339-1.641,4.109-1.641c0.76,0,1.6,0.18,2.516,0.539c0.918,0.359,1.798,0.539,2.642,0.539
				c0.22,0,0.55-0.008,0.992-0.023c0.442-0.015,0.763-0.021,0.961-0.021h0.188v1.267h-2.703c0.188,0.438,0.332,0.817,0.438,1.142
				c0.178,0.604,0.266,1.177,0.266,1.719c0,1.188-0.49,2.279-1.477,3.273c-0.984,0.993-2.311,1.491-3.977,1.491
				c-0.262,0-0.729-0.048-1.406-0.142c-0.303,0-0.703,0.255-1.203,0.767c-0.5,0.511-0.75,0.927-0.75,1.25
				c0,0.332,0.365,0.577,1.096,0.733c0.479,0.104,1.012,0.156,1.596,0.156c2.683,0,4.502,0.15,5.461,0.451
				c1.576,0.49,2.363,1.543,2.363,3.156c0,1.646-0.918,2.959-2.758,3.938c-1.839,0.979-3.695,1.47-5.57,1.47
				c-1.707,0-3.062-0.347-4.062-1.039s-1.5-1.419-1.5-2.181c0-0.375,0.132-0.741,0.396-1.103c0.266-0.358,0.787-0.894,1.564-1.603
				l1.027-0.922l0.187-0.188c-0.476-0.188-0.832-0.371-1.069-0.548c-0.414-0.323-0.621-0.692-0.621-1.108
				c0-0.385,0.182-0.811,0.539-1.272c0.359-0.464,1.127-1.216,2.307-2.259C163.335,36.841,162.6,36.282,162.073,35.48z
				 M163.729,47.105c0.984,0.332,2.113,0.5,3.385,0.5c1.729,0,3.135-0.301,4.219-0.898c1.083-0.6,1.625-1.336,1.625-2.211
				c0-0.698-0.438-1.162-1.314-1.391c-0.543-0.137-1.57-0.215-3.084-0.234c-0.387-0.012-0.793-0.021-1.223-0.039
				c-0.428-0.016-0.818-0.034-1.174-0.055c-0.229-0.012-0.602-0.053-1.11-0.125c-0.513-0.073-0.894-0.137-1.144-0.188
				c-0.125,0-0.432,0.328-0.913,0.984c-0.494,0.667-0.741,1.28-0.741,1.844C162.252,46.168,162.745,46.771,163.729,47.105z
				 M168.689,36.371c0.625-0.5,0.938-1.37,0.938-2.607c0-0.99-0.253-2.104-0.758-3.346c-0.506-1.238-1.348-1.858-2.521-1.858
				c-1.021,0-1.726,0.483-2.109,1.454c-0.198,0.51-0.297,1.141-0.297,1.891c0,1.271,0.307,2.412,0.922,3.422
				c0.613,1.012,1.41,1.516,2.391,1.516C167.825,36.841,168.305,36.684,168.689,36.371z"/>
			<linearGradient id="SVGID_39_" gradientUnits="userSpaceOnUse" x1="7.4912" y1="25.6851" x2="202.25" y2="25.6851">
				<stop  offset="0.2147" style="stop-color:#707070;stop-opacity:0.9612"/>
				<stop  offset="0.5644" style="stop-color:#606060;stop-opacity:0.9324"/>
				<stop  offset="1" style="stop-color:#5E5E5E;stop-opacity:0.9292"/>
			</linearGradient>
			<path fill="url(#SVGID_39_)" d="M175.689,41.966c0.74-0.095,1.259-0.278,1.556-0.556c0.297-0.276,0.444-0.895,0.444-1.854V31.62
				c0-0.661-0.062-1.126-0.188-1.396c-0.196-0.394-0.604-0.59-1.219-0.59c-0.095,0-0.189,0.006-0.289,0.018
				c-0.101,0.011-0.224,0.025-0.367,0.047v-0.547c0.429-0.125,1.438-0.448,3.031-0.969l1.469-0.484c0.073,0,0.117,0.026,0.133,0.078
				c0.017,0.052,0.023,0.125,0.023,0.219v2.297c0.956-0.896,1.704-1.51,2.245-1.844c0.812-0.51,1.652-0.766,2.525-0.766
				c0.707,0,1.354,0.203,1.936,0.609c1.123,0.792,1.685,2.203,1.685,4.233v7.298c0,0.75,0.149,1.292,0.449,1.625
				s0.801,0.505,1.504,0.516v0.438h-6.672v-0.438c0.76-0.104,1.292-0.313,1.594-0.633c0.304-0.315,0.453-1.008,0.453-2.07v-6.672
				c0-0.896-0.166-1.638-0.497-2.228c-0.332-0.588-0.941-0.883-1.833-0.883c-0.61,0-1.231,0.209-1.864,0.625
				c-0.353,0.24-0.809,0.637-1.367,1.188v8.75c0,0.75,0.168,1.254,0.5,1.508c0.334,0.257,0.858,0.396,1.578,0.414v0.438h-6.828
				V41.966L175.689,41.966z"/>
			<linearGradient id="SVGID_40_" gradientUnits="userSpaceOnUse" x1="7.4912" y1="25.6851" x2="202.25" y2="25.6851">
				<stop  offset="0.2147" style="stop-color:#707070;stop-opacity:0.9612"/>
				<stop  offset="0.5644" style="stop-color:#606060;stop-opacity:0.9324"/>
				<stop  offset="1" style="stop-color:#5E5E5E;stop-opacity:0.9292"/>
			</linearGradient>
			<path fill="url(#SVGID_40_)" d="M192.784,37.48h0.517c0.238,1.188,0.562,2.099,0.967,2.732c0.728,1.168,1.791,1.75,3.194,1.75
				c0.779,0,1.396-0.216,1.847-0.646c0.453-0.434,0.68-0.992,0.68-1.682c0-0.438-0.131-0.857-0.393-1.266
				c-0.261-0.406-0.719-0.803-1.375-1.188l-1.748-1c-1.281-0.688-2.225-1.382-2.83-2.078c-0.604-0.698-0.906-1.521-0.906-2.47
				c0-1.168,0.418-2.125,1.25-2.875s1.881-1.125,3.142-1.125c0.554,0,1.159,0.104,1.82,0.312c0.659,0.208,1.032,0.312,1.116,0.312
				c0.188,0,0.322-0.026,0.406-0.078c0.082-0.052,0.155-0.135,0.219-0.25h0.375l0.108,4.359h-0.483
				c-0.209-1.01-0.489-1.797-0.844-2.359c-0.646-1.041-1.578-1.562-2.797-1.562c-0.729,0-1.303,0.224-1.72,0.672
				s-0.625,0.974-0.625,1.578c0,0.958,0.72,1.812,2.155,2.562l2.062,1.109c2.219,1.208,3.328,2.615,3.328,4.219
				c0,1.229-0.46,2.234-1.381,3.018c-0.92,0.779-2.124,1.172-3.609,1.172c-0.625,0-1.332-0.104-2.123-0.312
				c-0.791-0.209-1.258-0.312-1.404-0.312c-0.125,0-0.232,0.044-0.326,0.133c-0.096,0.09-0.167,0.194-0.219,0.319h-0.405V37.48
				H192.784z"/>
		</g>
	</g>
</g>
</svg>
