<?xml version="1.0" encoding="utf-8"?>
<!-- Generator: Adobe Illustrator 15.0.2, SVG Export Plug-In . SVG Version: 6.00 Build 0)  -->
<!DOCTYPE svg PUBLIC "-//W3C//DTD SVG 1.1//EN" "http://www.w3.org/Graphics/SVG/1.1/DTD/svg11.dtd">
<svg version="1.1" id="Layer_1" xmlns="http://www.w3.org/2000/svg" xmlns:xlink="http://www.w3.org/1999/xlink" x="0px" y="0px"
	 width="105.625px" height="60.875px" viewBox="0 0 105.625 60.875" enable-background="new 0 0 105.625 60.875"
	 xml:space="preserve">
<g id="Layer_2_1_">
</g>
<g id="Layer_2" display="none">
	<rect y="-3.375" display="inline" stroke="#FFFFFF" stroke-miterlimit="10" width="206.25" height="59.625"/>
</g>
<g>
	<path fill="#333333" d="M8.528,57.989c0.838-0.089,1.385-0.24,1.64-0.452s0.382-0.75,0.382-1.614V45.691
		c0-0.838-0.124-1.377-0.371-1.617c-0.247-0.239-0.797-0.389-1.651-0.449v-0.426h6.199c2.089,0,3.856,0.344,5.301,1.033
		c2.605,1.233,3.908,3.442,3.908,6.625c0,1.146-0.234,2.234-0.702,3.269c-0.468,1.033-1.174,1.905-2.117,2.616
		c-0.599,0.449-1.22,0.79-1.864,1.021c-1.175,0.436-2.621,0.651-4.335,0.651h-6.39V57.989z M13.161,57.383
		c0.184,0.12,0.563,0.18,1.14,0.18c1.797,0,3.275-0.354,4.436-1.066c1.782-1.096,2.673-2.964,2.673-5.609
		c0-2.359-0.734-4.136-2.201-5.326c-1.258-1.021-2.924-1.529-4.998-1.529c-0.517,0-0.867,0.057-1.05,0.169s-0.275,0.36-0.275,0.741
		v11.701C12.886,57.016,12.978,57.264,13.161,57.383z"/>
	<path fill="#333333" d="M25.026,57.989c0.846-0.089,1.395-0.24,1.645-0.452c0.251-0.212,0.376-0.75,0.376-1.614V45.691
		c0-0.815-0.124-1.35-0.371-1.601c-0.247-0.251-0.797-0.405-1.651-0.467v-0.426h12.219l0.079,3.29h-0.584
		c-0.195-1.014-0.487-1.67-0.876-1.969c-0.389-0.297-1.258-0.446-2.605-0.446h-3.131c-0.338,0-0.546,0.055-0.625,0.163
		c-0.079,0.107-0.118,0.312-0.118,0.611v5.133h3.549c0.981,0,1.606-0.146,1.875-0.437c0.27-0.29,0.487-0.879,0.651-1.765h0.539
		v5.312h-0.539c-0.172-0.891-0.393-1.479-0.663-1.769s-0.891-0.434-1.864-0.434h-3.549v5.694c0,0.456,0.144,0.726,0.433,0.81
		c0.289,0.082,1.153,0.123,2.592,0.123c1.56,0,2.71-0.17,3.453-0.512c0.743-0.341,1.41-1.166,2.001-2.477h0.64l-1.044,3.886H25.026
		V57.989z"/>
	<path fill="#333333" d="M40.299,53.789c0.389,1.033,0.845,1.855,1.368,2.471c0.912,1.07,2.044,1.605,3.397,1.605
		c0.733,0,1.366-0.231,1.901-0.695c0.535-0.465,0.802-1.111,0.802-1.943c0-0.748-0.269-1.399-0.807-1.953
		c-0.352-0.353-1.091-0.881-2.22-1.584l-1.961-1.225c-0.591-0.374-1.062-0.752-1.414-1.135c-0.651-0.727-0.977-1.527-0.977-2.402
		c0-1.16,0.386-2.127,1.157-2.897c0.771-0.771,1.793-1.156,3.066-1.156c0.524,0,1.155,0.129,1.893,0.388
		c0.737,0.258,1.158,0.389,1.263,0.389c0.285,0,0.481-0.068,0.589-0.203c0.109-0.135,0.193-0.325,0.253-0.572h0.472l0.505,4.896
		h-0.55c-0.375-1.476-0.975-2.504-1.803-3.088c-0.827-0.584-1.645-0.877-2.454-0.877c-0.629,0-1.177,0.186-1.645,0.557
		c-0.468,0.369-0.702,0.885-0.702,1.544c0,0.592,0.179,1.097,0.538,1.517c0.358,0.426,0.916,0.872,1.671,1.336l2.02,1.246
		c1.264,0.779,2.156,1.494,2.675,2.146c0.511,0.658,0.767,1.438,0.767,2.336c0,1.205-0.455,2.212-1.365,3.021
		c-0.909,0.81-2.072,1.214-3.487,1.214c-0.711,0-1.455-0.136-2.229-0.404c-0.775-0.271-1.219-0.404-1.331-0.404
		c-0.27,0-0.451,0.083-0.545,0.248c-0.093,0.164-0.155,0.34-0.185,0.527h-0.505l-0.685-4.896h0.528V53.789z"/>
	<path fill="#333333" d="M51.979,57.989c0.936-0.067,1.542-0.206,1.818-0.419c0.277-0.213,0.416-0.762,0.416-1.647V45.691
		c0-0.847-0.139-1.392-0.416-1.635c-0.276-0.242-0.882-0.388-1.818-0.433v-0.426h6.807v0.426c-0.937,0.045-1.543,0.188-1.82,0.433
		c-0.276,0.244-0.416,0.788-0.416,1.635v10.23c0,0.887,0.14,1.436,0.416,1.646c0.277,0.214,0.884,0.353,1.82,0.42v0.427h-6.807
		V57.989z"/>
	<path fill="#333333" d="M70.409,43.3c0.86,0.247,1.354,0.37,1.481,0.37c0.33,0,0.563-0.062,0.702-0.189
		c0.138-0.127,0.256-0.312,0.354-0.551h0.506l0.18,4.84h-0.528c-0.472-1.114-0.958-1.945-1.46-2.492
		c-0.906-0.959-2.085-1.438-3.538-1.438c-1.476,0-2.772,0.56-3.892,1.679s-1.678,2.963-1.678,5.531c0,2.119,0.557,3.773,1.672,4.965
		c1.115,1.19,2.494,1.785,4.133,1.785c0.277,0,0.604-0.025,0.978-0.078c0.375-0.053,0.729-0.135,1.067-0.246
		c0.546-0.181,0.887-0.334,1.021-0.466c0.135-0.131,0.202-0.323,0.202-0.577v-3.664c0-0.889-0.125-1.441-0.376-1.66
		c-0.25-0.219-0.799-0.354-1.645-0.405v-0.429h5.861v0.429c-0.568,0.037-0.947,0.131-1.134,0.28
		c-0.313,0.238-0.472,0.732-0.472,1.481v4.526c0,0.27-0.661,0.629-1.982,1.078c-1.32,0.449-2.592,0.674-3.812,0.674
		c-2.245,0-4.139-0.655-5.682-1.967c-1.701-1.444-2.55-3.383-2.55-5.816c0-2.143,0.679-3.977,2.033-5.503
		c1.489-1.685,3.466-2.526,5.931-2.526C68.67,42.93,69.547,43.053,70.409,43.3z"/>
	<path fill="#333333" d="M76.136,57.989c0.95-0.099,1.561-0.312,1.831-0.646c0.27-0.334,0.404-1.104,0.404-2.317V44.895
		l-0.314-0.371c-0.337-0.396-0.623-0.642-0.859-0.734c-0.234-0.094-0.589-0.146-1.061-0.163V43.2h3.924l8.878,11.004v-7.644
		c0-1.258-0.187-2.076-0.562-2.455c-0.248-0.244-0.793-0.404-1.641-0.479V43.2h5.402v0.426c-0.876,0.09-1.46,0.304-1.752,0.642
		c-0.292,0.336-0.438,1.107-0.438,2.312v12.105h-0.394L79.381,46.074v8.953c0,1.257,0.184,2.074,0.55,2.457
		c0.239,0.246,0.774,0.414,1.606,0.505v0.427h-5.402L76.136,57.989L76.136,57.989z"/>
	<path fill="#333333" d="M93.97,53.789c0.389,1.033,0.845,1.855,1.368,2.471c0.912,1.07,2.043,1.605,3.396,1.605
		c0.732,0,1.366-0.231,1.901-0.695c0.534-0.465,0.802-1.111,0.802-1.943c0-0.748-0.27-1.399-0.807-1.953
		c-0.353-0.353-1.092-0.881-2.221-1.584l-1.961-1.225c-0.591-0.374-1.062-0.752-1.414-1.135c-0.65-0.727-0.977-1.527-0.977-2.402
		c0-1.16,0.386-2.127,1.156-2.897c0.771-0.771,1.793-1.156,3.066-1.156c0.524,0,1.155,0.129,1.893,0.388
		c0.738,0.258,1.158,0.389,1.264,0.389c0.285,0,0.48-0.068,0.589-0.203c0.109-0.135,0.193-0.325,0.253-0.572h0.473l0.504,4.896
		h-0.549c-0.375-1.476-0.976-2.504-1.804-3.088c-0.827-0.584-1.646-0.877-2.454-0.877c-0.629,0-1.177,0.186-1.645,0.557
		c-0.469,0.369-0.702,0.885-0.702,1.544c0,0.592,0.179,1.097,0.538,1.517c0.357,0.426,0.916,0.872,1.671,1.336l2.021,1.246
		c1.264,0.779,2.155,1.494,2.674,2.146c0.513,0.658,0.769,1.438,0.769,2.336c0,1.205-0.456,2.212-1.366,3.021
		c-0.908,0.81-2.072,1.214-3.486,1.214c-0.711,0-1.455-0.136-2.229-0.404c-0.774-0.271-1.219-0.404-1.331-0.404
		c-0.27,0-0.451,0.083-0.545,0.248c-0.093,0.164-0.154,0.34-0.186,0.527h-0.504l-0.686-4.896h0.528V53.789z"/>
</g>
<g id="Layer_1_1_">
	<g>
		<path fill="#333333" d="M9.036,42.466c2.48-0.253,4.072-0.813,4.775-1.683c0.703-0.87,1.055-2.883,1.055-6.045V10.382
			c0-2.167-0.342-3.577-1.025-4.23c-0.684-0.654-2.237-1.039-4.658-1.156V3.882h11.829L34.791,33.77L48.233,3.882h11.926v1.113
			c-2.228,0.157-3.662,0.561-4.308,1.215c-0.646,0.654-0.968,2.044-0.968,4.172V37.05c0,2.187,0.322,3.587,0.968,4.202
			s2.08,1.02,4.308,1.214v1.113H43.372v-1.113c2.421-0.194,3.93-0.629,4.526-1.303c0.596-0.673,0.894-2.278,0.894-4.815V9.415
			L33.425,43.579h-0.82L17.502,10.821v23.917c0,3.279,0.479,5.416,1.436,6.41c0.625,0.646,2.021,1.084,4.189,1.315v1.113H9.036
			V42.466z"/>
		<path fill="#333333" d="M90.774,4.146c2.246,0.645,3.535,0.967,3.867,0.967c0.859,0,1.469-0.166,1.831-0.498
			c0.36-0.332,0.669-0.81,0.923-1.436h1.318l0.469,12.627h-1.377c-1.23-2.91-2.5-5.078-3.809-6.504
			c-2.363-2.5-5.439-3.75-9.229-3.75c-3.849,0-7.231,1.46-10.151,4.38s-4.38,7.73-4.38,14.429c0,5.528,1.455,9.844,4.365,12.95
			c2.91,3.104,6.504,4.657,10.78,4.657c0.723,0,1.572-0.067,2.55-0.204s1.903-0.352,2.782-0.644
			c1.426-0.468,2.314-0.872,2.666-1.213c0.353-0.341,0.527-0.843,0.527-1.507V28.84c0-2.317-0.326-3.761-0.98-4.33
			c-0.655-0.569-2.086-0.923-4.293-1.061v-1.113h15.293v1.113c-1.483,0.098-2.471,0.342-2.959,0.732
			c-0.819,0.625-1.229,1.915-1.229,3.867v11.81c0,0.703-1.724,1.641-5.171,2.812c-3.447,1.172-6.763,1.758-9.945,1.758
			c-5.859,0-10.802-1.709-14.824-5.127c-4.435-3.769-6.65-8.827-6.65-15.176c0-5.585,1.768-10.371,5.303-14.355
			c3.887-4.395,9.043-6.592,15.469-6.592C86.243,3.179,88.528,3.501,90.774,4.146z"/>
	</g>
	<g>
		<path fill="#333333" d="M64.773,4.854c0.854,0.607,1.282,1.272,1.282,1.997c0,0.311-0.108,0.6-0.326,0.868
			c-0.218,0.268-0.553,0.402-1.005,0.402c-0.331,0-0.621-0.113-0.871-0.34c-0.25-0.227-0.433-0.557-0.545-0.991l-0.17-0.68
			c-0.123-0.5-0.335-0.854-0.638-1.062C62.189,4.85,61.779,4.75,61.269,4.75c-1.076,0-1.985,0.47-2.726,1.411
			c-0.742,0.94-1.111,2.19-1.111,3.75c0,1.428,0.408,2.708,1.225,3.842c0.817,1.135,1.92,1.702,3.307,1.702
			c0.982,0,1.855-0.321,2.621-0.965c0.434-0.369,0.924-0.955,1.473-1.759l0.396,0.241c-0.539,1.134-1.104,2.032-1.699,2.693
			c-1.143,1.267-2.465,1.899-3.965,1.899c-1.474,0-2.775-0.581-3.908-1.742c-1.133-1.161-1.699-2.738-1.699-4.729
			c0-1.954,0.617-3.634,1.855-5.041c1.236-1.407,2.799-2.11,4.687-2.11C62.902,3.943,63.918,4.247,64.773,4.854z"/>
	</g>
</g>
<g id="Layer_3">
	<g>
		<path fill="#848484" d="M7.491,41.289c2.48-0.253,4.072-0.812,4.775-1.684c0.703-0.869,1.055-2.883,1.055-6.045V9.205
			c0-2.167-0.342-3.577-1.025-4.23c-0.684-0.654-2.237-1.039-4.658-1.156V2.705h11.829l13.779,29.888L46.688,2.705h11.925v1.113
			c-2.227,0.157-3.661,0.561-4.307,1.215c-0.646,0.654-0.968,2.044-0.968,4.172v26.668c0,2.188,0.322,3.587,0.968,4.202
			c0.646,0.614,2.08,1.02,4.307,1.214v1.113H41.827v-1.113c2.421-0.194,3.93-0.629,4.526-1.303s0.894-2.278,0.894-4.815V8.238
			L31.88,42.402h-0.82L15.957,9.644v23.917c0,3.279,0.479,5.416,1.436,6.41c0.625,0.646,2.021,1.084,4.189,1.317V42.4H7.491V41.289z
			"/>
		<path fill="#848484" d="M89.229,2.969c2.246,0.646,3.535,0.967,3.867,0.967c0.859,0,1.469-0.166,1.832-0.498
			c0.359-0.332,0.668-0.81,0.922-1.436h1.318l0.469,12.627H96.26c-1.229-2.91-2.5-5.078-3.809-6.504
			c-2.363-2.5-5.439-3.75-9.229-3.75c-3.849,0-7.231,1.46-10.151,4.38s-4.38,7.73-4.38,14.429c0,5.528,1.455,9.843,4.365,12.95
			c2.909,3.104,6.504,4.657,10.78,4.657c0.723,0,1.572-0.066,2.551-0.204c0.977-0.137,1.902-0.353,2.781-0.644
			c1.426-0.469,2.313-0.873,2.666-1.213c0.354-0.342,0.527-0.845,0.527-1.508v-9.56c0-2.317-0.326-3.761-0.98-4.33
			s-2.086-0.923-4.293-1.061V21.16h15.293v1.113c-1.482,0.098-2.471,0.342-2.959,0.732c-0.818,0.625-1.229,1.915-1.229,3.867V38.68
			c0,0.703-1.725,1.641-5.172,2.812c-3.445,1.172-6.762,1.758-9.945,1.758c-5.859,0-10.801-1.709-14.824-5.127
			c-4.434-3.77-6.649-8.827-6.649-15.176c0-5.585,1.769-10.371,5.304-14.355C70.792,4.197,75.947,2,82.374,2
			C84.698,2.002,86.982,2.324,89.229,2.969z"/>
	</g>
	<g>
		<path fill="#848484" d="M63.228,3.677c0.854,0.607,1.282,1.272,1.282,1.997c0,0.311-0.108,0.6-0.326,0.868
			c-0.219,0.268-0.553,0.402-1.005,0.402c-0.331,0-0.621-0.113-0.871-0.34s-0.433-0.557-0.545-0.991l-0.171-0.68
			c-0.122-0.5-0.334-0.854-0.637-1.062c-0.312-0.198-0.722-0.298-1.231-0.298c-1.076,0-1.985,0.47-2.726,1.411
			c-0.742,0.94-1.111,2.19-1.111,3.75c0,1.428,0.408,2.708,1.225,3.842c0.817,1.135,1.92,1.702,3.307,1.702
			c0.982,0,1.855-0.321,2.621-0.965c0.434-0.369,0.924-0.955,1.473-1.759l0.396,0.241c-0.539,1.134-1.104,2.032-1.699,2.693
			c-1.143,1.267-2.465,1.899-3.965,1.899c-1.474,0-2.775-0.581-3.908-1.742s-1.699-2.738-1.699-4.729
			c0-1.954,0.617-3.634,1.855-5.041c1.236-1.407,2.799-2.11,4.687-2.11C61.357,2.766,62.374,3.07,63.228,3.677z"/>
	</g>
</g>
<g>
	<path fill="#848484" d="M7.528,57.156c0.838-0.09,1.385-0.24,1.64-0.452s0.382-0.75,0.382-1.614V44.857
		c0-0.838-0.124-1.377-0.371-1.616c-0.247-0.239-0.797-0.39-1.651-0.449v-0.426h6.199c2.089,0,3.856,0.344,5.301,1.032
		c2.605,1.234,3.908,3.443,3.908,6.625c0,1.146-0.234,2.235-0.702,3.27c-0.468,1.033-1.174,1.905-2.117,2.616
		c-0.599,0.448-1.22,0.79-1.864,1.022c-1.175,0.435-2.621,0.65-4.335,0.65h-6.39V57.156z M12.161,56.55
		c0.184,0.12,0.563,0.181,1.14,0.181c1.797,0,3.275-0.355,4.436-1.067c1.782-1.095,2.673-2.964,2.673-5.608
		c0-2.361-0.734-4.137-2.201-5.328c-1.258-1.02-2.924-1.528-4.998-1.528c-0.517,0-0.867,0.057-1.05,0.169
		c-0.183,0.111-0.275,0.359-0.275,0.742v11.699C11.886,56.184,11.978,56.43,12.161,56.55z"/>
	<path fill="#848484" d="M24.026,57.156c0.846-0.09,1.395-0.24,1.645-0.452c0.251-0.212,0.376-0.75,0.376-1.614V44.857
		c0-0.814-0.124-1.349-0.371-1.6c-0.247-0.251-0.797-0.406-1.651-0.467v-0.426h12.219l0.079,3.29h-0.584
		c-0.195-1.015-0.487-1.669-0.876-1.968c-0.389-0.299-1.258-0.447-2.605-0.447h-3.131c-0.338,0-0.546,0.055-0.625,0.162
		c-0.079,0.108-0.118,0.312-0.118,0.613v5.133h3.549c0.981,0,1.606-0.146,1.875-0.438c0.27-0.29,0.487-0.879,0.651-1.766h0.539
		v5.312h-0.539c-0.172-0.891-0.393-1.48-0.663-1.769c-0.27-0.289-0.891-0.433-1.864-0.433h-3.549v5.693
		c0,0.456,0.144,0.727,0.433,0.809s1.153,0.123,2.592,0.123c1.56,0,2.71-0.17,3.453-0.511c0.743-0.341,1.41-1.166,2.001-2.478h0.64
		l-1.044,3.887H24.026V57.156z"/>
	<path fill="#848484" d="M39.299,52.956c0.389,1.033,0.845,1.856,1.368,2.471c0.912,1.07,2.044,1.605,3.397,1.605
		c0.733,0,1.366-0.231,1.901-0.695c0.535-0.465,0.802-1.112,0.802-1.942c0-0.75-0.269-1.4-0.807-1.955
		c-0.352-0.352-1.091-0.879-2.22-1.582l-1.961-1.226c-0.591-0.374-1.062-0.752-1.414-1.135c-0.651-0.726-0.977-1.526-0.977-2.401
		c0-1.162,0.386-2.128,1.157-2.898c0.771-0.771,1.793-1.156,3.066-1.156c0.524,0,1.155,0.129,1.893,0.389
		c0.737,0.258,1.158,0.387,1.263,0.387c0.285,0,0.481-0.067,0.589-0.202c0.109-0.136,0.193-0.325,0.253-0.572h0.472l0.505,4.896
		h-0.55c-0.375-1.475-0.975-2.504-1.803-3.088c-0.827-0.584-1.645-0.877-2.454-0.877c-0.629,0-1.177,0.187-1.645,0.558
		c-0.468,0.37-0.702,0.885-0.702,1.544c0,0.592,0.179,1.097,0.538,1.517c0.358,0.427,0.916,0.872,1.671,1.336l2.02,1.246
		c1.264,0.779,2.156,1.494,2.675,2.146c0.511,0.66,0.767,1.438,0.767,2.337c0,1.204-0.455,2.212-1.365,3.021
		c-0.909,0.809-2.072,1.213-3.487,1.213c-0.711,0-1.455-0.135-2.229-0.404c-0.775-0.27-1.219-0.403-1.331-0.403
		c-0.27,0-0.451,0.083-0.545,0.248c-0.093,0.164-0.155,0.34-0.185,0.526h-0.505l-0.685-4.896h0.528V52.956z"/>
	<path fill="#848484" d="M50.979,57.156c0.936-0.067,1.542-0.206,1.819-0.42c0.277-0.211,0.416-0.762,0.416-1.646V44.857
		c0-0.846-0.139-1.391-0.416-1.633c-0.277-0.244-0.883-0.389-1.819-0.434v-0.426h6.807v0.426c-0.937,0.045-1.543,0.189-1.82,0.434
		c-0.276,0.243-0.416,0.787-0.416,1.633V55.09c0,0.887,0.14,1.436,0.416,1.646c0.277,0.214,0.884,0.353,1.82,0.42v0.427h-6.807
		V57.156z"/>
	<path fill="#848484" d="M69.409,42.467c0.86,0.247,1.354,0.37,1.481,0.37c0.33,0,0.563-0.063,0.702-0.19
		c0.138-0.127,0.256-0.311,0.354-0.549h0.506l0.18,4.84h-0.528c-0.472-1.115-0.958-1.946-1.46-2.494
		c-0.906-0.957-2.085-1.438-3.538-1.438c-1.476,0-2.772,0.561-3.892,1.68s-1.678,2.963-1.678,5.53c0,2.119,0.557,3.773,1.672,4.964
		c1.115,1.191,2.494,1.786,4.133,1.786c0.277,0,0.604-0.026,0.978-0.079c0.375-0.052,0.729-0.134,1.067-0.246
		c0.546-0.18,0.887-0.334,1.021-0.465s0.202-0.322,0.202-0.576v-3.664c0-0.89-0.125-1.442-0.376-1.66
		c-0.25-0.219-0.799-0.354-1.645-0.406v-0.43h5.861v0.429c-0.568,0.037-0.947,0.131-1.134,0.28
		c-0.313,0.238-0.472,0.732-0.472,1.481v4.526c0,0.27-0.661,0.629-1.982,1.078c-1.32,0.449-2.592,0.674-3.812,0.674
		c-2.245,0-4.139-0.655-5.682-1.967c-1.701-1.444-2.55-3.383-2.55-5.816c0-2.143,0.679-3.977,2.033-5.503
		c1.489-1.685,3.466-2.526,5.931-2.526C67.67,42.098,68.547,42.22,69.409,42.467z"/>
	<path fill="#848484" d="M75.136,57.156c0.95-0.098,1.561-0.312,1.831-0.646c0.27-0.334,0.404-1.104,0.404-2.316V44.061
		l-0.314-0.369c-0.337-0.396-0.623-0.643-0.859-0.735c-0.234-0.095-0.589-0.147-1.061-0.163v-0.426h3.924l8.878,11.004v-7.645
		c0-1.257-0.187-2.074-0.562-2.453c-0.248-0.246-0.793-0.405-1.641-0.48v-0.426h5.402v0.426c-0.876,0.09-1.46,0.305-1.752,0.641
		c-0.292,0.338-0.438,1.108-0.438,2.313v12.106h-0.394L78.381,45.241v8.952c0,1.258,0.184,2.076,0.55,2.457
		c0.239,0.248,0.774,0.416,1.606,0.506v0.427h-5.402L75.136,57.156L75.136,57.156z"/>
	<path fill="#848484" d="M92.97,52.956c0.389,1.033,0.845,1.856,1.368,2.471c0.912,1.07,2.043,1.605,3.396,1.605
		c0.732,0,1.366-0.231,1.901-0.695c0.534-0.465,0.802-1.112,0.802-1.942c0-0.75-0.27-1.4-0.807-1.955
		c-0.353-0.352-1.092-0.879-2.221-1.582l-1.961-1.226c-0.591-0.374-1.062-0.752-1.414-1.135c-0.65-0.726-0.977-1.526-0.977-2.401
		c0-1.162,0.386-2.128,1.156-2.898c0.771-0.771,1.793-1.156,3.066-1.156c0.524,0,1.155,0.129,1.893,0.389
		c0.738,0.258,1.158,0.387,1.264,0.387c0.285,0,0.48-0.067,0.589-0.202c0.109-0.136,0.193-0.325,0.253-0.572h0.473l0.504,4.896
		h-0.549c-0.375-1.475-0.976-2.504-1.804-3.088c-0.827-0.584-1.646-0.877-2.454-0.877c-0.629,0-1.177,0.187-1.645,0.558
		c-0.469,0.37-0.702,0.885-0.702,1.544c0,0.592,0.179,1.097,0.538,1.517c0.357,0.427,0.916,0.872,1.671,1.336l2.021,1.246
		c1.264,0.779,2.155,1.494,2.674,2.146c0.513,0.66,0.769,1.438,0.769,2.337c0,1.204-0.455,2.212-1.366,3.021
		c-0.908,0.809-2.072,1.213-3.486,1.213c-0.711,0-1.455-0.135-2.229-0.404s-1.219-0.403-1.331-0.403
		c-0.27,0-0.451,0.083-0.545,0.248c-0.093,0.164-0.154,0.34-0.186,0.526h-0.504l-0.686-4.896h0.528V52.956z"/>
</g>
</svg>
