<?xml version="1.0" encoding="utf-8"?>
<!-- Generator: Adobe Illustrator 15.0.2, SVG Export Plug-In . SVG Version: 6.00 Build 0)  -->
<!DOCTYPE svg PUBLIC "-//W3C//DTD SVG 1.1//EN" "http://www.w3.org/Graphics/SVG/1.1/DTD/svg11.dtd">
<svg version="1.1" id="Layer_1" xmlns="http://www.w3.org/2000/svg" xmlns:xlink="http://www.w3.org/1999/xlink" x="0px" y="0px"
	 width="206.25px" height="56.25px" viewBox="0 0 206.25 56.25" enable-background="new 0 0 206.25 56.25" xml:space="preserve">
<g>
	<path fill="#545554" d="M8.036,41.466c2.48-0.253,4.072-0.814,4.775-1.683s1.055-2.883,1.055-6.045V9.382
		c0-2.167-0.342-3.577-1.025-4.23c-0.684-0.654-2.237-1.039-4.658-1.156V2.882h11.829l13.779,29.887L47.233,2.882h11.925v1.113
		c-2.227,0.157-3.662,0.561-4.307,1.215s-0.967,2.044-0.967,4.172V36.05c0,2.187,0.322,3.587,0.967,4.202s2.08,1.02,4.307,1.214
		v1.113H42.372v-1.113c2.421-0.195,3.93-0.629,4.526-1.303c0.596-0.673,0.894-2.278,0.894-4.816V8.415L32.425,42.579h-0.82
		L16.502,9.821v23.917c0,3.279,0.479,5.416,1.436,6.411c0.625,0.645,2.021,1.083,4.189,1.317v1.113H8.036V41.466z"/>
	<path fill="#545554" d="M89.774,3.146c2.246,0.645,3.535,0.967,3.867,0.967c0.859,0,1.469-0.166,1.831-0.498
		c0.361-0.332,0.669-0.81,0.923-1.436h1.318l0.469,12.627h-1.377c-1.23-2.91-2.5-5.078-3.809-6.504
		c-2.363-2.5-5.439-3.75-9.229-3.75c-3.848,0-7.232,1.46-10.151,4.38c-2.92,2.92-4.38,7.73-4.38,14.429
		c0,5.527,1.455,9.844,4.365,12.949c2.91,3.105,6.504,4.658,10.781,4.658c0.722,0,1.572-0.068,2.549-0.205
		c0.977-0.136,1.904-0.351,2.783-0.643c1.425-0.467,2.314-0.872,2.666-1.213c0.352-0.341,0.527-0.843,0.527-1.506v-9.559
		c0-2.317-0.327-3.761-0.981-4.33c-0.655-0.569-2.085-0.923-4.292-1.061v-1.113h15.293v1.113c-1.484,0.098-2.471,0.342-2.959,0.732
		c-0.82,0.625-1.23,1.915-1.23,3.867v11.807c0,0.703-1.724,1.641-5.171,2.812c-3.447,1.172-6.763,1.758-9.946,1.758
		c-5.859,0-10.801-1.709-14.824-5.127c-4.434-3.769-6.65-8.828-6.65-15.176c0-5.585,1.768-10.371,5.303-14.355
		c3.886-4.395,9.042-6.592,15.469-6.592C85.243,2.179,87.528,2.501,89.774,3.146z"/>
</g>
<g>
	<path fill="#545554" d="M63.773,3.854c0.854,0.607,1.282,1.272,1.282,1.997c0,0.311-0.108,0.6-0.326,0.868
		s-0.552,0.402-1.005,0.402c-0.331,0-0.621-0.113-0.871-0.34c-0.25-0.227-0.432-0.557-0.545-0.991l-0.17-0.68
		c-0.123-0.5-0.335-0.854-0.637-1.062C61.189,3.85,60.779,3.75,60.269,3.75c-1.076,0-1.985,0.47-2.726,1.411
		c-0.741,0.94-1.111,2.19-1.111,3.75c0,1.428,0.408,2.708,1.225,3.842c0.817,1.135,1.919,1.702,3.307,1.702
		c0.982,0,1.855-0.321,2.62-0.965c0.434-0.369,0.925-0.955,1.473-1.759l0.396,0.241c-0.538,1.134-1.104,2.032-1.699,2.693
		c-1.142,1.267-2.464,1.899-3.965,1.899c-1.473,0-2.775-0.581-3.908-1.742s-1.699-2.738-1.699-4.729
		c0-1.954,0.618-3.634,1.855-5.041s2.799-2.11,4.687-2.11C61.902,2.943,62.919,3.247,63.773,3.854z"/>
</g>
<g>
	<path fill="#545554" d="M101.516,41.985c1.167-0.124,1.927-0.334,2.281-0.629c0.354-0.295,0.531-1.043,0.531-2.246V24.876
		c0-1.167-0.172-1.917-0.516-2.25c-0.344-0.333-1.109-0.542-2.297-0.625v-0.594h8.625c2.906,0,5.364,0.479,7.375,1.438
		c3.625,1.719,5.438,4.792,5.438,9.219c0,1.594-0.326,3.109-0.977,4.547c-0.651,1.438-1.633,2.651-2.945,3.641
		c-0.833,0.625-1.698,1.099-2.594,1.422c-1.636,0.604-3.646,0.906-6.031,0.906h-8.891V41.985z M107.961,41.142
		c0.255,0.167,0.784,0.25,1.586,0.25c2.5,0,4.557-0.495,6.172-1.485c2.479-1.522,3.719-4.124,3.719-7.804
		c0-3.284-1.021-5.755-3.062-7.412c-1.75-1.418-4.068-2.127-6.953-2.127c-0.719,0-1.206,0.078-1.461,0.234
		c-0.255,0.157-0.383,0.501-0.383,1.032v16.279C107.579,40.631,107.706,40.975,107.961,41.142z"/>
	<path fill="#545554" d="M135.297,29.446c1.104,1.016,1.656,2.456,1.656,4.32h-9.922c0.104,2.411,0.651,4.168,1.641,5.27
		c0.989,1.102,2.161,1.652,3.516,1.652c1.094,0,2.016-0.286,2.766-0.857c0.75-0.571,1.442-1.382,2.078-2.432l0.547,0.187
		c-0.427,1.325-1.227,2.551-2.398,3.678c-1.172,1.127-2.607,1.69-4.305,1.69c-1.958,0-3.472-0.739-4.539-2.219
		c-1.068-1.479-1.602-3.182-1.602-5.109c0-2.094,0.62-3.901,1.859-5.422c1.239-1.521,2.854-2.281,4.844-2.281
		C132.907,27.923,134.193,28.431,135.297,29.446z M127.813,30.642c-0.333,0.562-0.573,1.271-0.719,2.125h6.594
		c-0.115-1.042-0.312-1.817-0.594-2.328c-0.511-0.917-1.365-1.375-2.562-1.375C129.344,29.063,128.438,29.59,127.813,30.642z"/>
	<path fill="#545554" d="M139.985,37.657h0.516c0.239,1.188,0.562,2.099,0.967,2.734c0.727,1.167,1.792,1.75,3.195,1.75
		c0.779,0,1.395-0.216,1.847-0.648c0.452-0.432,0.678-0.992,0.678-1.68c0-0.438-0.13-0.859-0.391-1.266
		c-0.261-0.406-0.719-0.802-1.375-1.188l-1.749-1c-1.281-0.688-2.224-1.38-2.829-2.078c-0.604-0.698-0.907-1.521-0.907-2.469
		c0-1.167,0.417-2.125,1.25-2.875c0.833-0.75,1.88-1.125,3.141-1.125c0.552,0,1.159,0.104,1.82,0.312
		c0.661,0.208,1.034,0.312,1.117,0.312c0.188,0,0.323-0.026,0.406-0.078c0.083-0.052,0.156-0.135,0.219-0.25h0.375l0.109,4.359
		h-0.484c-0.208-1.01-0.49-1.797-0.844-2.359c-0.646-1.042-1.578-1.562-2.797-1.562c-0.729,0-1.302,0.224-1.719,0.672
		c-0.417,0.448-0.625,0.974-0.625,1.578c0,0.958,0.719,1.812,2.156,2.562l2.062,1.109c2.219,1.208,3.328,2.615,3.328,4.219
		c0,1.229-0.46,2.234-1.381,3.016c-0.92,0.781-2.124,1.172-3.61,1.172c-0.624,0-1.331-0.104-2.122-0.312s-1.258-0.312-1.404-0.312
		c-0.125,0-0.234,0.044-0.328,0.133c-0.094,0.089-0.167,0.195-0.218,0.32h-0.406V37.657z"/>
	<path fill="#545554" d="M151.391,42.142c1.114-0.104,1.817-0.294,2.109-0.57c0.292-0.276,0.438-1.023,0.438-2.242v-7.453
		c0-0.677-0.047-1.146-0.141-1.406c-0.156-0.427-0.484-0.641-0.984-0.641c-0.115,0-0.227,0.011-0.336,0.031
		c-0.109,0.021-0.425,0.104-0.945,0.25v-0.484l0.672-0.219c1.823-0.594,3.094-1.042,3.812-1.344
		c0.292-0.125,0.479-0.188,0.562-0.188c0.021,0.073,0.031,0.151,0.031,0.234v11.219c0,1.188,0.143,1.933,0.43,2.234
		c0.286,0.302,0.935,0.495,1.945,0.578v0.438h-7.594V42.142z M153.875,21.249c0.312-0.321,0.698-0.482,1.156-0.482
		c0.448,0,0.831,0.158,1.148,0.475c0.317,0.316,0.477,0.702,0.477,1.158c0,0.446-0.159,0.827-0.477,1.143
		c-0.318,0.316-0.701,0.474-1.148,0.474c-0.458,0-0.844-0.158-1.156-0.474s-0.469-0.697-0.469-1.143S153.563,21.57,153.875,21.249z"
		/>
	<path fill="#545554" d="M162.618,35.657c-0.526-0.802-0.789-1.703-0.789-2.703c0-1.219,0.484-2.375,1.453-3.469
		s2.338-1.641,4.109-1.641c0.76,0,1.599,0.18,2.516,0.539c0.917,0.359,1.797,0.539,2.641,0.539c0.219,0,0.549-0.008,0.992-0.023
		c0.442-0.016,0.763-0.023,0.961-0.023h0.188v1.266h-2.703c0.188,0.438,0.333,0.818,0.438,1.141
		c0.177,0.604,0.266,1.177,0.266,1.719c0,1.188-0.492,2.279-1.477,3.273c-0.984,0.995-2.31,1.492-3.977,1.492
		c-0.261,0-0.729-0.047-1.406-0.141c-0.302,0-0.703,0.255-1.203,0.766c-0.5,0.511-0.75,0.927-0.75,1.25
		c0,0.333,0.365,0.578,1.096,0.734c0.479,0.104,1.012,0.156,1.596,0.156c2.681,0,4.501,0.151,5.461,0.453
		c1.575,0.49,2.363,1.542,2.363,3.156c0,1.646-0.919,2.958-2.758,3.938c-1.839,0.979-3.695,1.469-5.57,1.469
		c-1.708,0-3.062-0.347-4.062-1.039c-1-0.693-1.5-1.419-1.5-2.18c0-0.375,0.132-0.742,0.396-1.102s0.786-0.894,1.564-1.602
		l1.027-0.922l0.187-0.188c-0.476-0.188-0.832-0.37-1.07-0.547c-0.413-0.323-0.62-0.692-0.62-1.109c0-0.385,0.18-0.81,0.539-1.273
		c0.359-0.463,1.127-1.216,2.305-2.258C163.88,37.017,163.144,36.459,162.618,35.657z M164.274,47.282
		c0.984,0.333,2.112,0.5,3.383,0.5c1.729,0,3.135-0.3,4.219-0.898c1.083-0.599,1.625-1.336,1.625-2.211
		c0-0.698-0.438-1.162-1.315-1.391c-0.543-0.136-1.571-0.214-3.084-0.234c-0.386-0.011-0.793-0.023-1.222-0.039
		c-0.428-0.016-0.819-0.034-1.174-0.055c-0.229-0.011-0.601-0.052-1.111-0.125c-0.512-0.073-0.893-0.136-1.143-0.188
		c-0.125,0-0.43,0.328-0.913,0.984c-0.494,0.667-0.741,1.281-0.741,1.844C162.797,46.345,163.29,46.949,164.274,47.282z
		 M169.235,36.548c0.625-0.5,0.938-1.37,0.938-2.609c0-0.989-0.253-2.104-0.758-3.344c-0.505-1.239-1.347-1.859-2.523-1.859
		c-1.021,0-1.724,0.484-2.109,1.453c-0.198,0.511-0.297,1.141-0.297,1.891c0,1.271,0.307,2.412,0.922,3.422
		c0.614,1.011,1.411,1.516,2.391,1.516C168.37,37.017,168.849,36.86,169.235,36.548z"/>
	<path fill="#545554" d="M176.235,42.142c0.739-0.094,1.258-0.278,1.555-0.555c0.297-0.276,0.445-0.893,0.445-1.852v-7.938
		c0-0.661-0.062-1.126-0.188-1.395c-0.198-0.393-0.604-0.589-1.219-0.589c-0.094,0-0.19,0.005-0.289,0.016
		c-0.099,0.011-0.222,0.026-0.367,0.047v-0.547c0.427-0.125,1.438-0.448,3.031-0.969l1.469-0.484c0.073,0,0.117,0.026,0.133,0.078
		c0.016,0.052,0.023,0.125,0.023,0.219v2.297c0.957-0.896,1.705-1.51,2.246-1.844c0.811-0.51,1.653-0.766,2.526-0.766
		c0.707,0,1.352,0.203,1.934,0.609c1.123,0.792,1.685,2.203,1.685,4.234v7.297c0,0.75,0.149,1.292,0.449,1.625
		c0.3,0.333,0.801,0.505,1.504,0.516v0.438H184.5v-0.438c0.76-0.104,1.292-0.315,1.594-0.633c0.302-0.317,0.453-1.008,0.453-2.07
		v-6.672c0-0.896-0.166-1.638-0.497-2.227c-0.332-0.588-0.943-0.883-1.833-0.883c-0.611,0-1.233,0.208-1.865,0.625
		c-0.352,0.24-0.808,0.636-1.367,1.188v8.75c0,0.75,0.167,1.253,0.5,1.508c0.333,0.255,0.859,0.394,1.578,0.414v0.438h-6.828V42.142
		z"/>
	<path fill="#545554" d="M193.329,37.657h0.516c0.239,1.188,0.562,2.099,0.967,2.734c0.727,1.167,1.792,1.75,3.195,1.75
		c0.779,0,1.395-0.216,1.847-0.648c0.452-0.432,0.678-0.992,0.678-1.68c0-0.438-0.13-0.859-0.391-1.266
		c-0.261-0.406-0.719-0.802-1.375-1.188l-1.749-1c-1.281-0.688-2.224-1.38-2.829-2.078c-0.604-0.698-0.907-1.521-0.907-2.469
		c0-1.167,0.417-2.125,1.25-2.875c0.833-0.75,1.88-1.125,3.141-1.125c0.552,0,1.159,0.104,1.82,0.312
		c0.661,0.208,1.034,0.312,1.117,0.312c0.188,0,0.323-0.026,0.406-0.078c0.083-0.052,0.156-0.135,0.219-0.25h0.375l0.109,4.359
		h-0.484c-0.208-1.01-0.49-1.797-0.844-2.359c-0.646-1.042-1.578-1.562-2.797-1.562c-0.729,0-1.302,0.224-1.719,0.672
		c-0.417,0.448-0.625,0.974-0.625,1.578c0,0.958,0.719,1.812,2.156,2.562l2.062,1.109c2.219,1.208,3.328,2.615,3.328,4.219
		c0,1.229-0.46,2.234-1.381,3.016c-0.92,0.781-2.124,1.172-3.61,1.172c-0.624,0-1.331-0.104-2.122-0.312s-1.258-0.312-1.404-0.312
		c-0.125,0-0.234,0.044-0.328,0.133c-0.094,0.089-0.167,0.195-0.218,0.32h-0.406V37.657z"/>
</g>
</svg>
