<?xml version="1.0" encoding="utf-8"?>
<!-- Generator: Adobe Illustrator 15.0.2, SVG Export Plug-In . SVG Version: 6.00 Build 0)  -->
<!DOCTYPE svg PUBLIC "-//W3C//DTD SVG 1.1//EN" "http://www.w3.org/Graphics/SVG/1.1/DTD/svg11.dtd">
<svg version="1.1" id="Layer_1" xmlns="http://www.w3.org/2000/svg" xmlns:xlink="http://www.w3.org/1999/xlink" x="0px" y="0px"
	 width="442.088px" height="79.102px" viewBox="0 0 442.088 79.102" enable-background="new 0 0 442.088 79.102"
	 xml:space="preserve">
<g>
	<g id="XMLID_3_">
		<g>
			<path fill="#FFFFFF" d="M254.34,53.96c0,0.02,0,0.03,0,0.05c-0.05,0.22-0.04,0.39,0.01,0.56v0.01c0.03,0.6,0.08,1.2,0.09,1.8
				c0.01,0.37,0.34,0.52,0.62,0.46c0.16,0.38,0.37,0.77,0.66,1.17c1.05,1.45,2.44,2.35,4.22,2.55c0.53,0.07,0.61-0.61,0.27-0.89
				c1.65,0.04,3.36-0.1,4.48,0.27c-4.21,2.81-28.52,11.29-29.76,3.36c-0.31-2.02,1.38-3.88,4.32-4.8c0.57,2.34-0.98,5.1,1.92,5.76
				c1.15-2.85-1.9-6.02,0.96-8.16c0.2-1.15-2.18,0.26-1.44-1.44c1.79-16.96,7.55-32.29,15.84-45.12c-1.34-0.47,0.7-1.28-0.48-1.92
				c-4.71-0.87-2.31,5.37-4.8,6.72c-11.66,7.54-22.51,22.6-32.16,32.16c0.93-13.13,5.39-24.93,5.76-34.56
				c-0.61-0.66-2.08-0.48-3.36-0.48c-0.67,2.64,0.72,4.58,0,7.68c-3.94,17.06-19.72,34.78-33.11,42.72
				c-0.31-0.98-2.25-0.32-2.41-1.44c2.14-0.62,1.42-3.84,0.48-5.28c-0.96,0-1.92,0-2.88,0c-3.37,6.15,1.12,10.51,6.72,7.2
				c12.06-7.12,24.72-24.57,30.72-37.92c-0.8,8.11-5.87,29.54-2.4,36.96c1.46,3.11,6.64,4.12,6.72,0.96
				c-0.19,0.16-0.3,0.25-0.34,0.28c0.19-0.21,1.2-1.3,0.82-2.2c-2.46-0.01-3.14,0.7-5.28,0c-1.59-2.25-1.52-6.15-1.44-10.08
				c1.24,1.27,0.69-0.93,1.92-0.96c6.85-14.44,19.93-25.2,30.24-34.56c-4.98,12.61-10.11,25.08-12,40.8
				c-2.63,1.08-7.82,3.51-6.24,9.12c1.04,3.65,7.59,3.67,11.04,3.36c8.54-0.76,16.2-5.98,25.44-9.12
				c10.65-3.62,20.56-6.1,25.44-10.08c-0.66,17.61,30.61,7.46,29.76-3.36c1.46,0.44,3.74-0.69,3.84,0c-1.3,0.44,1.28,0.89,0.48,2.4
				c-1.68,2.95-5.29,3.98-6.72,7.2c6.56-0.01,4.95-8.17,11.52-8.16c-1.99,3.32-7.09,8.64-2.88,12.48c6.56,0.79,8.04-3.49,12.96-4.32
				c2.74,4.37,8.67-0.49,11.53-1.92c-0.17,2.08,1.32,2.52,2.87,2.88c4.07-0.1,6.23-4.65,8.16-5.28c-0.84,1.79-2.28,4.19-1.44,6.24
				c2.7,0.16,2.78,0.64,3.84,2.88c4.23-3.3,8.59-9.01,14.88-8.64c-0.21,2.19-2.36,4.46-0.96,6.72c4.45,1.02,8.22-2.62,10.56-5.28
				c-3.23,0.67-5.54,4.59-9.6,2.88c0.58-2.31,2.05-3.71,1.92-6.72c-5.25-1.88-9.21,3.75-12,4.32c3.69-2.88,7.07-6.06,11.04-8.64
				c0.87,0.73,1.48,1.73,3.36,1.44c-0.06-0.86,0.48-1.13,1.44-0.96c-0.2-1.81,0.09-2.64-1.92-3.36c3.51-3.06,6.59-6.54,10.081-9.6
				c7.51-0.18,18.6-1.5,26.399,0.48c0.54,0.43-0.03,1.07,0.96,1.92c2.641-0.45,4.471-0.7,5.28-1.92c-0.95-2.89-4.35-1.38-7.2-1.44
				c-7.37-0.17-18.06-0.44-24.47,0c1.7-2.62,5.479-6.07,4.31-8.64c-6.79,0.72-8.27,6.76-12.959,9.6c-4.04,0.27-7.7,0.93-11.52,1.44
				c2.75-5.57,7.46-9.19,10.08-14.88c-2.9-1.24-2.41,2.04-3.36,3.36c-2.97,4.15-6.28,8.05-9.12,12c-2.19,0.01-6.91,1.4-10.56,1.44
				c-1.87,0.02-4.11-1.36-4.8,0c1.25,4.52,10.26-0.74,14.88-0.48c-1.98,2.65-3.45,5.83-5.76,8.16c-9.98-1.14-20.4-0.24-29.28,0.48
				c-0.04-0.76,0.07-1.67-0.96-1.44c-8.06,2.39-15.31,3.16-24.96,1.44c-0.65,1.09,1.24,1.8,0,1.92c-3.01,1.31-3.4-1.74-7.2-0.96
				c0.32,7.81,11.17-1.29,14.88,3.84c-2.82,8.83-30.33,13.94-25.91-1.44c0.8-2.81,4.11-3.78,4.31-8.16
				c5.02-5.24,15.6-15.57,26.88-16.8c2.22-0.24,10.44-0.26,11.04,3.84c0.47,3.12-4.09,3.98-2.4,7.68c3.35-1.58,5.36-6.63,4.32-11.04
				c-12.32-6.55-26.71,2.56-34.08,8.64c-0.9-0.95-1.68-0.82-2.88-0.48c-0.77,3.22-3.42,4.58-4.32,7.68
				c-12.24,6.62-21.04,21.31-39.36,18.72c-1.32-2.26-2.69-3.31-0.96-5.76c1.14,2.03,4.69-0.24,4.8-1.44c0.1-1.2-0.44-1.16-0.48-1.92
				c-5.03-1.43-5.58,2.51-7.65,5.24c0.04-0.44,0.09-0.87,0.09-1.3c0-0.65-1-0.65-1,0c0,0.01,0,0.02,0,0.03
				c-0.02,0.03-0.04,0.05-0.05,0.08C254.41,52.62,254.33,53.29,254.34,53.96z M430.77-1.02c0,29.76,0,59.52,0,89.28
				c-142.87,0-285.76,0-428.64,0c0-17.44,0-34.88,0-52.32c1.14,2.38,1.96,5.08,3.84,6.72c3.27-0.23,4.32,1.86,5.76-0.96
				c-1.17-4.27-8.04-2.84-7.68-8.64c12.56-15.51,56.66-13.19,70.56-0.48c4.06,3.7,6.02,10.36,1.44,15.36
				c-8.25,9.02-29.25,10.43-45.6,12c0.61-10.3,3.26-19.91,6.24-29.28c0.66-2.07,4.01-6,0.48-7.2c-2.59,10.53-6.42,24.06-9.12,36.48
				c-0.14-1.43-3.1-3.05-3.84-0.96c-0.55,3.18,4.37,2.72,6.24,4.8c0.47-1.14,1.69-1.52,1.93-2.88c16.01-2.16,38.23-2.92,46.07-13.92
				c2.79-3.91,2.18-9.99-1.44-13.92C64.34,19.27,22.4,18.55,4.53,28.26c-0.8,1.43-1.63,2.85-2.4,4.32c0-11.2,0-22.4,0-33.6
				C145.01-1.02,287.9-1.02,430.77-1.02z M170.13,29.22c-2.92-0.36-3.47,1.64-4.32,3.36c-3.99,3.2-6.55,7.84-9.6,12
				c-7.21,1.31-9.85,11.61-17.28,9.6c0.83-1.9,1.76-3.69,2.4-5.76c4.97-4.1,10.18-8.64,14.88-13.44
				c4.59-4.69,10.29-9.76,11.52-16.32C149.08,24,148.2,47.12,130.77,53.7c-1.67-3.7,3.49-4.43,2.88-8.64
				c-5.53-2.25-10.09,0.03-13.92,4.32c-2.94,3.3-3.83,9.53-8.16,5.28c0.13-4.36,3.59-5.38,3.36-10.08
				c-4.29-1.09-5.81,3.13-7.68,2.88c0.7-1.23,2.5-1.35,1.92-3.84c-3.27-0.24-3.48,2.59-4.79,4.32c-2.91,2.37-7.02,3.54-8.65,7.2
				c3.51,0.3,5.08-3.88,7.2-3.36c-1.16,2.21-3.66,3.55-2.4,5.76c3.8-2.12,6.77-9.65,12-10.08c-0.78,3.24-4.96,8.23-0.96,10.56
				c5.91-2.18,12.01-0.36,16.81-4.8c-0.17,2.08,1.32,2.52,2.87,2.88c3.54-1.1,5.28-4,8.16-5.76c-0.75,1.97-3.16,5.18-0.96,7.2
				c2.94-0.11,4.56-1.52,6.72-2.4c0.09,1.35,0.84,2.04,2.4,1.92c3.6-0.88,4.48-4.49,7.2-6.24c-2.28,5.88,10.05,6.26,12.48,2.88
				c-4.87,1.74-13.42,1.91-11.52-4.32C157.71,42.91,169.62,35.95,170.13,29.22z M98.13,47.46c-0.9-1.5-3.2-1.6-4.32-2.88
				c1.07-1.12,0.43-1.29,0.96-2.4c-7.23-0.44-12.47,4.22-15.84,10.08c-1.81,1.46-4.86-0.48-5.76,2.4c1.17,1.61,4.22,0.31,5.76-0.48
				c0.34,1.74,1.55,2.61,2.4,3.84C89.81,57.37,96.66,55.11,98.13,47.46z"/>
			<path d="M185.97,60.42c0.16,1.12,2.1,0.46,2.41,1.44c13.39-7.94,29.17-25.66,33.11-42.72c0.72-3.1-0.67-5.04,0-7.68
				c1.28,0,2.75-0.18,3.36,0.48c-0.37,9.63-4.83,21.43-5.76,34.56c9.65-9.56,20.5-24.62,32.16-32.16c2.49-1.35,0.09-7.59,4.8-6.72
				c1.18,0.64-0.86,1.45,0.48,1.92c-8.29,12.83-14.05,28.16-15.84,45.12c-0.74,1.7,1.64,0.29,1.44,1.44
				c-2.86,2.14,0.19,5.31-0.96,8.16c-2.9-0.66-1.35-3.42-1.92-5.76c-2.94,0.92-4.63,2.78-4.32,4.8c1.24,7.93,25.55-0.55,29.76-3.36
				c-1.12-0.37-2.83-0.23-4.48-0.27c-0.07-0.06-0.16-0.1-0.27-0.11c-1.8-0.21-2.93-1.38-3.88-2.81c-0.71-1.08-0.58-2.34-0.46-3.57
				c2.07-2.73,2.62-6.67,7.65-5.24c0.04,0.76,0.58,0.72,0.48,1.92c-0.11,1.2-3.66,3.47-4.8,1.44c-1.73,2.45-0.36,3.5,0.96,5.76
				c18.32,2.59,27.12-12.1,39.36-18.72c0.9-3.1,3.55-4.46,4.32-7.68c1.2-0.34,1.98-0.47,2.88,0.48c7.37-6.08,21.76-15.19,34.08-8.64
				c1.04,4.41-0.97,9.46-4.32,11.04c-1.69-3.7,2.87-4.56,2.4-7.68c-0.6-4.1-8.82-4.08-11.04-3.84
				c-11.28,1.23-21.86,11.56-26.88,16.8c-0.2,4.38-3.51,5.35-4.31,8.16c-4.42,15.38,23.09,10.27,25.91,1.44
				c-3.71-5.13-14.56,3.97-14.88-3.84c3.8-0.78,4.19,2.27,7.2,0.96c1.24-0.12-0.65-0.83,0-1.92c9.65,1.72,16.9,0.95,24.96-1.44
				c1.03-0.23,0.92,0.68,0.96,1.44c8.88-0.72,19.3-1.62,29.28-0.48c2.31-2.33,3.78-5.51,5.76-8.16c-4.62-0.26-13.63,5-14.88,0.48
				c0.69-1.36,2.93,0.02,4.8,0c3.65-0.04,8.37-1.43,10.56-1.44c2.84-3.95,6.15-7.85,9.12-12c0.95-1.32,0.46-4.6,3.36-3.36
				c-2.62,5.69-7.33,9.31-10.08,14.88c3.82-0.51,7.48-1.17,11.52-1.44c4.69-2.84,6.17-8.88,12.959-9.6
				c1.17,2.57-2.609,6.02-4.31,8.64c6.41-0.44,17.1-0.17,24.47,0c2.851,0.06,6.25-1.45,7.2,1.44c-0.81,1.22-2.64,1.47-5.28,1.92
				c-0.99-0.85-0.42-1.49-0.96-1.92c-7.8-1.98-18.89-0.66-26.399-0.48c-3.49,3.06-6.57,6.54-10.081,9.6
				c2.01,0.72,1.72,1.55,1.92,3.36c-0.96-0.17-1.5,0.1-1.44,0.96c-1.88,0.29-2.49-0.71-3.36-1.44c-3.97,2.58-7.35,5.76-11.04,8.64
				c2.79-0.57,6.75-6.2,12-4.32c0.13,3.01-1.34,4.41-1.92,6.72c4.06,1.71,6.37-2.21,9.6-2.88c-2.34,2.66-6.11,6.3-10.56,5.28
				c-1.4-2.26,0.75-4.53,0.96-6.72c-6.29-0.37-10.65,5.34-14.88,8.64c-1.06-2.24-1.14-2.72-3.84-2.88c-0.84-2.05,0.6-4.45,1.44-6.24
				c-1.93,0.63-4.09,5.18-8.16,5.28c-1.55-0.36-3.04-0.8-2.87-2.88c-2.86,1.43-8.79,6.29-11.53,1.92c-4.92,0.83-6.4,5.11-12.96,4.32
				c-4.21-3.84,0.89-9.16,2.88-12.48c-6.57-0.01-4.96,8.15-11.52,8.16c1.43-3.22,5.04-4.25,6.72-7.2c0.8-1.51-1.78-1.96-0.48-2.4
				c-0.1-0.69-2.38,0.44-3.84,0c0.85,10.82-30.42,20.97-29.76,3.36c-4.88,3.98-14.79,6.46-25.44,10.08
				c-9.24,3.14-16.9,8.36-25.44,9.12c-3.45,0.31-10,0.29-11.04-3.36c-1.58-5.61,3.61-8.04,6.24-9.12c1.89-15.72,7.02-28.19,12-40.8
				c-10.31,9.36-23.39,20.12-30.24,34.56c-1.23,0.03-0.68,2.23-1.92,0.96c-0.08,3.93-0.15,7.83,1.44,10.08
				c2.14,0.7,2.82-0.01,5.28,0c0.38,0.9-0.63,1.99-0.82,2.2c0.04-0.03,0.15-0.12,0.34-0.28c-0.08,3.16-5.26,2.15-6.72-0.96
				c-3.47-7.42,1.6-28.85,2.4-36.96c-6,13.35-18.66,30.8-30.72,37.92c-5.6,3.31-10.09-1.05-6.72-7.2c0.96,0,1.92,0,2.88,0
				C187.39,56.58,188.11,59.8,185.97,60.42z M391.89,32.1c5.01,0.48,9.62-4.4,8.16-7.2C397.23,27.19,394.03,29.11,391.89,32.1z
				 M395.25,32.58c-8.05-0.22-8.8,6.88-12.96,10.56C388.62,41.63,391.13,36.29,395.25,32.58z M389.49,33.06
				c-4.47-0.03-8.53,0.96-12,1.44c-1.59,2.89-3.93,5.02-5.28,8.16C382.89,45.14,384.7,37.67,389.49,33.06z M382.77,44.1
				c-3.35-0.16-3.39,3.01-5.28,4.32C379.77,47.5,381.41,45.94,382.77,44.1z M379.89,44.1c-3.36-0.44-4.34-0.33-9.12-0.48
				c-1.12,4-3.87,6.36-4.32,11.04C372.22,52.42,376.99,49.19,379.89,44.1z M364.05,51.3c0.93-2.66,6.06-6.01,4.8-7.68
				c-16.91,0.38-38.07-3.3-37.44,13.44c12.71,3.79,17.27-17.71,29.28-11.52c0.3,3.74-4.52,4.63-2.88,8.16
				C360.48,54.93,361.38,51.51,364.05,51.3z M356.85,46.5c-5.8,0.43-9.09,3.38-11.04,7.68C351.38,55.37,356.43,52.03,356.85,46.5z
				 M275.25,56.58c8.44-3.41,19.08-7.16,21.6-14.88C290.72,47.4,280.68,51.76,275.25,56.58z"/>
			<path fill="#FFFFFF" d="M400.05,24.9c1.46,2.8-3.149,7.68-8.16,7.2C394.03,29.11,397.23,27.19,400.05,24.9z"/>
			<path fill="#FFFFFF" d="M382.29,43.14c4.16-3.68,4.91-10.78,12.96-10.56C391.13,36.29,388.62,41.63,382.29,43.14z"/>
			<path fill="#FFFFFF" d="M377.49,34.5c3.47-0.48,7.53-1.47,12-1.44c-4.79,4.61-6.6,12.08-17.28,9.6
				C373.56,39.52,375.9,37.39,377.49,34.5z"/>
			<path fill="#FFFFFF" d="M377.49,48.42c1.89-1.31,1.93-4.48,5.28-4.32C381.41,45.94,379.77,47.5,377.49,48.42z"/>
			<path fill="#FFFFFF" d="M370.77,43.62c4.78,0.15,5.76,0.04,9.12,0.48c-2.9,5.09-7.67,8.32-13.44,10.56
				C366.9,49.98,369.65,47.62,370.77,43.62z"/>
			<path fill="#FFFFFF" d="M368.85,43.62c1.26,1.67-3.87,5.02-4.8,7.68c-2.67,0.21-3.57,3.63-6.24,2.4
				c-1.64-3.53,3.18-4.42,2.88-8.16c-12.01-6.19-16.57,15.31-29.28,11.52C330.78,40.32,351.94,44,368.85,43.62z"/>
			<path fill="#FFFFFF" d="M345.81,54.18c1.95-4.3,5.24-7.25,11.04-7.68C356.43,52.03,351.38,55.37,345.81,54.18z"/>
			<path fill="#FFFFFF" d="M296.85,41.7c-2.52,7.72-13.16,11.47-21.6,14.88C280.68,51.76,290.72,47.4,296.85,41.7z"/>
			<path d="M165.81,32.58c0.85-1.72,1.4-3.72,4.32-3.36c-0.51,6.73-12.42,13.69-14.4,20.16c-1.9,6.23,6.65,6.06,11.52,4.32
				c-2.43,3.38-14.76,3-12.48-2.88c-2.72,1.75-3.6,5.36-7.2,6.24c-1.56,0.12-2.31-0.57-2.4-1.92c-2.16,0.88-3.78,2.29-6.72,2.4
				c-2.2-2.02,0.21-5.23,0.96-7.2c-2.88,1.76-4.62,4.66-8.16,5.76c-1.55-0.36-3.04-0.8-2.87-2.88c-4.8,4.44-10.9,2.62-16.81,4.8
				c-4-2.33,0.18-7.32,0.96-10.56c-5.23,0.43-8.2,7.96-12,10.08c-1.26-2.21,1.24-3.55,2.4-5.76c-2.12-0.52-3.69,3.66-7.2,3.36
				c1.63-3.66,5.74-4.83,8.65-7.2c1.31-1.73,1.52-4.56,4.79-4.32c0.58,2.49-1.22,2.61-1.92,3.84c1.87,0.25,3.39-3.97,7.68-2.88
				c0.23,4.7-3.23,5.72-3.36,10.08c4.33,4.25,5.22-1.98,8.16-5.28c3.83-4.29,8.39-6.57,13.92-4.32c0.61,4.21-4.55,4.94-2.88,8.64
				c17.43-6.58,18.31-29.7,36.96-35.04c-1.23,6.56-6.93,11.63-11.52,16.32c-4.7,4.8-9.91,9.34-14.88,13.44
				c-0.64,2.07-1.57,3.86-2.4,5.76c7.43,2.01,10.07-8.29,17.28-9.6C159.26,40.42,161.82,35.78,165.81,32.58z M158.13,45.06
				c2.2-4.21,7.47-7.89,8.16-12C163.58,36.75,158.4,40.52,158.13,45.06z M144.21,45.06c7.38-7.83,16.3-14.11,21.6-24
				C155.68,25.8,148.6,36.16,144.21,45.06z M147.09,54.66c3.71-0.94,7.37-4.47,7.68-7.2C151.74,49.39,147.8,50.4,147.09,54.66z
				 M129.81,46.5c-5.8,0.43-9.09,3.38-11.04,7.68C124.34,55.37,129.39,52.03,129.81,46.5z"/>
			<path fill="#FFFFFF" d="M166.29,33.06c-0.69,4.11-5.96,7.79-8.16,12C158.4,40.52,163.58,36.75,166.29,33.06z"/>
			<path fill="#FFFFFF" d="M165.81,21.06c-5.3,9.89-14.22,16.17-21.6,24C148.6,36.16,155.68,25.8,165.81,21.06z"/>
			<path fill="#FFFFFF" d="M154.77,47.46c-0.31,2.73-3.97,6.26-7.68,7.2C147.8,50.4,151.74,49.39,154.77,47.46z"/>
			<path fill="#FFFFFF" d="M118.77,54.18c1.95-4.3,5.24-7.25,11.04-7.68C129.39,52.03,124.34,55.37,118.77,54.18z"/>
			<path d="M93.81,44.58c1.12,1.28,3.42,1.38,4.32,2.88c-1.47,7.65-8.32,9.91-16.8,10.56c-0.85-1.23-2.06-2.1-2.4-3.84
				c-1.54,0.79-4.59,2.09-5.76,0.48c0.9-2.88,3.95-0.94,5.76-2.4c3.37-5.86,8.61-10.52,15.84-10.08
				C94.24,43.29,94.88,43.46,93.81,44.58z M96.21,48.42c-5.72-4.48-9.67,3.55-15.36,4.8C84.2,59.66,94.46,54.2,96.21,48.42z
				 M89.01,46.02c-3.11-0.63-6.26,2.62-7.68,5.28C84.38,50.02,87.48,48.8,89.01,46.02z"/>
			<path fill="#FFFFFF" d="M80.85,53.22c5.69-1.25,9.64-9.28,15.36-4.8C94.46,54.2,84.2,59.66,80.85,53.22z"/>
			<path fill="#FFFFFF" d="M81.33,51.3c1.42-2.66,4.57-5.91,7.68-5.28C87.48,48.8,84.38,50.02,81.33,51.3z"/>
			<path d="M77.01,33.06c3.62,3.93,4.23,10.01,1.44,13.92c-7.84,11-30.06,11.76-46.07,13.92c-0.24,1.36-1.46,1.74-1.93,2.88
				c-1.87-2.08-6.79-1.62-6.24-4.8c0.74-2.09,3.7-0.47,3.84,0.96c2.7-12.42,6.53-25.95,9.12-36.48c3.53,1.2,0.18,5.13-0.48,7.2
				c-2.98,9.37-5.63,18.98-6.24,29.28c16.35-1.57,37.35-2.98,45.6-12c4.58-5,2.62-11.66-1.44-15.36c-13.9-12.71-58-15.03-70.56,0.48
				c-0.36,5.8,6.51,4.37,7.68,8.64c-1.44,2.82-2.49,0.73-5.76,0.96c-1.88-1.64-2.7-4.34-3.84-6.72c0-1.12,0-2.24,0-3.36
				c0.77-1.47,1.6-2.89,2.4-4.32C22.4,18.55,64.34,19.27,77.01,33.06z"/>
		</g>
		<g>
		</g>
	</g>
	<path d="M253.75,56.188"/>
	<g>
		<g>
			<path fill="#231F20" d="M276.8,19.252c0.51-0.812,0.962-1.665,1.111-2.62c0.053-0.338-0.133-0.603-0.482-0.633
				c-5.796-0.491-10.991,1.378-15.037,5.507c-1.158,1.183-3.121,3.665-0.707,4.62c2.829,1.12,7.344-0.433,10.115-1.04
				c4.578-1.002,9.101-2.311,13.722-3.105c0.635-0.109,0.365-1.072-0.266-0.964c-6.752,1.16-13.299,3.505-20.125,4.244
				c-1.039,0.112-2.167,0.203-3.181-0.1c-1.366-0.408,0.774-2.546,1.149-2.948c3.744-4.022,8.889-5.676,14.329-5.214
				c-0.161-0.211-0.321-0.422-0.482-0.633c-0.138,0.882-0.543,1.635-1.011,2.38C275.593,19.295,276.458,19.797,276.8,19.252
				L276.8,19.252z"/>
		</g>
	</g>
	<g>
		<g>
			<path fill="#231F20" d="M263,25.5c-0.62,0.03-2.743,0.241-2.554-0.872c0.154-0.904,1.025-1.708,1.643-2.319
				c1.379-1.366,3.337-2.938,5.294-3.327c0.578-0.115,0.406-0.954-0.133-0.982c-1.696-0.089-3.336,1.411-4.503,2.461
				c-1.3,1.171-2.931,2.849-3.229,4.656c-0.104,0.63,0.859,0.901,0.964,0.266c0.259-1.566,1.624-2.906,2.709-3.968
				c0.969-0.947,2.579-2.493,4.059-2.415c-0.044-0.327-0.089-0.655-0.133-0.982c-2.543,0.506-5.34,2.791-6.846,4.828
				c-0.504,0.682-1.163,1.741-0.695,2.612c0.625,1.163,2.305,1.097,3.423,1.042C263.642,26.469,263.645,25.468,263,25.5L263,25.5z"
				/>
		</g>
	</g>
</g>
</svg>
